%TF.GenerationSoftware,KiCad,Pcbnew,(5.1.10)-1*%
%TF.CreationDate,2021-06-03T19:49:57-05:00*%
%TF.ProjectId,step_led_panel,73746570-5f6c-4656-945f-70616e656c2e,rev?*%
%TF.SameCoordinates,Original*%
%TF.FileFunction,Copper,L2,Bot*%
%TF.FilePolarity,Positive*%
%FSLAX46Y46*%
G04 Gerber Fmt 4.6, Leading zero omitted, Abs format (unit mm)*
G04 Created by KiCad (PCBNEW (5.1.10)-1) date 2021-06-03 19:49:57*
%MOMM*%
%LPD*%
G01*
G04 APERTURE LIST*
%TA.AperFunction,ComponentPad*%
%ADD10C,5.700000*%
%TD*%
%TA.AperFunction,ComponentPad*%
%ADD11C,2.200000*%
%TD*%
%TA.AperFunction,ComponentPad*%
%ADD12R,2.200000X2.200000*%
%TD*%
%TA.AperFunction,ComponentPad*%
%ADD13C,2.600000*%
%TD*%
%TA.AperFunction,ComponentPad*%
%ADD14R,2.600000X2.600000*%
%TD*%
%TA.AperFunction,ViaPad*%
%ADD15C,0.800000*%
%TD*%
%TA.AperFunction,Conductor*%
%ADD16C,0.400000*%
%TD*%
G04 APERTURE END LIST*
D10*
%TO.P,H8,1*%
%TO.N,N/C*%
X220980000Y-59690000D03*
%TD*%
%TO.P,H7,1*%
%TO.N,N/C*%
X220980000Y-16002000D03*
%TD*%
%TO.P,H6,1*%
%TO.N,N/C*%
X149860000Y-59690000D03*
%TD*%
%TO.P,H5,1*%
%TO.N,N/C*%
X149860000Y-16002000D03*
%TD*%
%TO.P,H4,1*%
%TO.N,N/C*%
X78740000Y-59690000D03*
%TD*%
%TO.P,H3,1*%
%TO.N,N/C*%
X78740000Y-16002000D03*
%TD*%
%TO.P,H2,1*%
%TO.N,N/C*%
X7620000Y-59690000D03*
%TD*%
%TO.P,H1,1*%
%TO.N,N/C*%
X7620000Y-16002000D03*
%TD*%
D11*
%TO.P,FSR2,2*%
%TO.N,Net-(FSR1-Pad2)*%
X123190000Y-59690000D03*
D12*
%TO.P,FSR2,1*%
%TO.N,Net-(FSR1-Pad1)*%
X120650000Y-59690000D03*
%TD*%
D13*
%TO.P,J3,2*%
%TO.N,Net-(FSR1-Pad2)*%
X114300000Y-60452000D03*
D14*
%TO.P,J3,1*%
%TO.N,Net-(FSR1-Pad1)*%
X109220000Y-60452000D03*
%TD*%
D11*
%TO.P,FSR3,2*%
%TO.N,Net-(FSR1-Pad2)*%
X179070000Y-59690000D03*
D12*
%TO.P,FSR3,1*%
%TO.N,Net-(FSR1-Pad1)*%
X176530000Y-59690000D03*
%TD*%
D11*
%TO.P,FSR1,2*%
%TO.N,Net-(FSR1-Pad2)*%
X53340000Y-59690000D03*
D12*
%TO.P,FSR1,1*%
%TO.N,Net-(FSR1-Pad1)*%
X50800000Y-59690000D03*
%TD*%
D13*
%TO.P,J2,3*%
%TO.N,GND*%
X212598000Y-60960000D03*
%TO.P,J2,2*%
%TO.N,/D_OUT*%
X207518000Y-60960000D03*
D14*
%TO.P,J2,1*%
%TO.N,+5V*%
X202438000Y-60960000D03*
%TD*%
D13*
%TO.P,J1,3*%
%TO.N,GND*%
X26416000Y-60960000D03*
%TO.P,J1,2*%
%TO.N,/D_IN*%
X21336000Y-60960000D03*
D14*
%TO.P,J1,1*%
%TO.N,+5V*%
X16256000Y-60960000D03*
%TD*%
D15*
%TO.N,/D_IN*%
X9475999Y-3379999D03*
%TO.N,/D_OUT*%
X216154000Y-72644000D03*
%TO.N,Net-(LED8-Pad2)*%
X214884000Y-6604000D03*
X12230010Y-25146000D03*
%TO.N,Net-(LED16-Pad2)*%
X214808000Y-28270000D03*
X10922000Y-47406665D03*
%TO.N,Net-(LED24-Pad2)*%
X214884000Y-50546000D03*
X12192000Y-69596000D03*
%TD*%
D16*
%TO.N,/D_IN*%
X10414000Y-9652000D02*
X10414000Y-4318000D01*
X14097000Y-13335000D02*
X10414000Y-9652000D01*
X14097000Y-18796000D02*
X14097000Y-13335000D01*
X10414000Y-4318000D02*
X9475999Y-3379999D01*
X10414000Y-32512000D02*
X10414000Y-22479000D01*
X9475999Y-33450001D02*
X10414000Y-32512000D01*
X10414000Y-22479000D02*
X14097000Y-18796000D01*
X21336000Y-60960000D02*
X10491999Y-50115999D01*
X10491999Y-50115999D02*
X9475999Y-49099999D01*
X9475999Y-49099999D02*
X9475999Y-33450001D01*
%TO.N,/D_OUT*%
X207518000Y-67310000D02*
X207518000Y-60960000D01*
X212852000Y-72644000D02*
X207518000Y-67310000D01*
X216154000Y-72644000D02*
X212852000Y-72644000D01*
%TO.N,Net-(LED8-Pad2)*%
X214884000Y-6604000D02*
X196342000Y-25146000D01*
X196342000Y-25146000D02*
X12230010Y-25146000D01*
%TO.N,Net-(LED16-Pad2)*%
X12446000Y-45882665D02*
X10922000Y-47406665D01*
X12446000Y-35814000D02*
X12446000Y-45882665D01*
X15748000Y-32512000D02*
X12446000Y-35814000D01*
X210566000Y-32512000D02*
X15748000Y-32512000D01*
X214808000Y-28270000D02*
X210566000Y-32512000D01*
%TO.N,Net-(LED24-Pad2)*%
X211582000Y-53848000D02*
X214884000Y-50546000D01*
X12192000Y-69596000D02*
X22860000Y-69596000D01*
X22860000Y-69596000D02*
X27432000Y-65024000D01*
X27432000Y-65024000D02*
X134747000Y-65024000D01*
X145923000Y-53848000D02*
X211582000Y-53848000D01*
X134747000Y-65024000D02*
X145923000Y-53848000D01*
%TD*%
M02*
