M48
; DRILL file {KiCad (5.1.10)-1} date 06/03/21 19:50:00
; FORMAT={-:-/ absolute / inch / decimal}
; #@! TF.CreationDate,2021-06-03T19:50:00-05:00
; #@! TF.GenerationSoftware,Kicad,Pcbnew,(5.1.10)-1
; #@! TF.FileFunction,Plated,1,2,PTH
FMAT,2
INCH
T1C0.0157
T2C0.0433
T3C0.0512
T4C0.2087
%
G90
G05
T1
X0.3731Y-0.1331
X0.43Y-1.8664
X0.48Y-2.74
X0.4815Y-0.99
X8.457Y-1.113
X8.46Y-0.26
X8.46Y-1.99
X8.51Y-2.86
T2
X2.0Y-2.35
X2.1Y-2.35
X4.75Y-2.35
X4.85Y-2.35
X6.95Y-2.35
X7.05Y-2.35
T3
X0.64Y-2.4
X0.84Y-2.4
X1.04Y-2.4
X4.3Y-2.38
X4.5Y-2.38
X7.97Y-2.4
X8.17Y-2.4
X8.37Y-2.4
T4
X0.3Y-0.63
X0.3Y-2.35
X3.1Y-0.63
X3.1Y-2.35
X5.9Y-0.63
X5.9Y-2.35
X8.7Y-0.63
X8.7Y-2.35
T0
M30
