%TF.GenerationSoftware,KiCad,Pcbnew,(5.1.10)-1*%
%TF.CreationDate,2021-06-03T19:49:58-05:00*%
%TF.ProjectId,step_led_panel,73746570-5f6c-4656-945f-70616e656c2e,rev?*%
%TF.SameCoordinates,Original*%
%TF.FileFunction,Soldermask,Top*%
%TF.FilePolarity,Negative*%
%FSLAX46Y46*%
G04 Gerber Fmt 4.6, Leading zero omitted, Abs format (unit mm)*
G04 Created by KiCad (PCBNEW (5.1.10)-1) date 2021-06-03 19:49:58*
%MOMM*%
%LPD*%
G01*
G04 APERTURE LIST*
%ADD10C,0.400000*%
%ADD11C,9.200000*%
%ADD12C,5.700000*%
%ADD13C,1.100000*%
%ADD14C,2.200000*%
%ADD15R,2.200000X2.200000*%
%ADD16C,2.600000*%
%ADD17R,2.600000X2.600000*%
%ADD18R,1.500000X1.000000*%
G04 APERTURE END LIST*
D10*
X159792857Y-14147142D02*
X159792857Y-11147142D01*
X159792857Y-12575714D02*
X161507142Y-12575714D01*
X161507142Y-14147142D02*
X161507142Y-11147142D01*
X164221428Y-14147142D02*
X164221428Y-12575714D01*
X164078571Y-12290000D01*
X163792857Y-12147142D01*
X163221428Y-12147142D01*
X162935714Y-12290000D01*
X164221428Y-14004285D02*
X163935714Y-14147142D01*
X163221428Y-14147142D01*
X162935714Y-14004285D01*
X162792857Y-13718571D01*
X162792857Y-13432857D01*
X162935714Y-13147142D01*
X163221428Y-13004285D01*
X163935714Y-13004285D01*
X164221428Y-12861428D01*
X166078571Y-14147142D02*
X165792857Y-14004285D01*
X165650000Y-13718571D01*
X165650000Y-11147142D01*
X166792857Y-12147142D02*
X167935714Y-12147142D01*
X167221428Y-14147142D02*
X167221428Y-11575714D01*
X167364285Y-11290000D01*
X167650000Y-11147142D01*
X167935714Y-11147142D01*
X168935714Y-12147142D02*
X168935714Y-15147142D01*
X168935714Y-12290000D02*
X169221428Y-12147142D01*
X169792857Y-12147142D01*
X170078571Y-12290000D01*
X170221428Y-12432857D01*
X170364285Y-12718571D01*
X170364285Y-13575714D01*
X170221428Y-13861428D01*
X170078571Y-14004285D01*
X169792857Y-14147142D01*
X169221428Y-14147142D01*
X168935714Y-14004285D01*
X172935714Y-14147142D02*
X172935714Y-12575714D01*
X172792857Y-12290000D01*
X172507142Y-12147142D01*
X171935714Y-12147142D01*
X171650000Y-12290000D01*
X172935714Y-14004285D02*
X172650000Y-14147142D01*
X171935714Y-14147142D01*
X171650000Y-14004285D01*
X171507142Y-13718571D01*
X171507142Y-13432857D01*
X171650000Y-13147142D01*
X171935714Y-13004285D01*
X172650000Y-13004285D01*
X172935714Y-12861428D01*
X175650000Y-14147142D02*
X175650000Y-11147142D01*
X175650000Y-14004285D02*
X175364285Y-14147142D01*
X174792857Y-14147142D01*
X174507142Y-14004285D01*
X174364285Y-13861428D01*
X174221428Y-13575714D01*
X174221428Y-12718571D01*
X174364285Y-12432857D01*
X174507142Y-12290000D01*
X174792857Y-12147142D01*
X175364285Y-12147142D01*
X175650000Y-12290000D01*
X180792857Y-14147142D02*
X179364285Y-14147142D01*
X179364285Y-11147142D01*
X181792857Y-12575714D02*
X182792857Y-12575714D01*
X183221428Y-14147142D02*
X181792857Y-14147142D01*
X181792857Y-11147142D01*
X183221428Y-11147142D01*
X184507142Y-14147142D02*
X184507142Y-11147142D01*
X185221428Y-11147142D01*
X185650000Y-11290000D01*
X185935714Y-11575714D01*
X186078571Y-11861428D01*
X186221428Y-12432857D01*
X186221428Y-12861428D01*
X186078571Y-13432857D01*
X185935714Y-13718571D01*
X185650000Y-14004285D01*
X185221428Y-14147142D01*
X184507142Y-14147142D01*
X189792857Y-14147142D02*
X189792857Y-11147142D01*
X189792857Y-12290000D02*
X190078571Y-12147142D01*
X190650000Y-12147142D01*
X190935714Y-12290000D01*
X191078571Y-12432857D01*
X191221428Y-12718571D01*
X191221428Y-13575714D01*
X191078571Y-13861428D01*
X190935714Y-14004285D01*
X190650000Y-14147142D01*
X190078571Y-14147142D01*
X189792857Y-14004285D01*
X192935714Y-14147142D02*
X192650000Y-14004285D01*
X192507142Y-13861428D01*
X192364285Y-13575714D01*
X192364285Y-12718571D01*
X192507142Y-12432857D01*
X192650000Y-12290000D01*
X192935714Y-12147142D01*
X193364285Y-12147142D01*
X193650000Y-12290000D01*
X193792857Y-12432857D01*
X193935714Y-12718571D01*
X193935714Y-13575714D01*
X193792857Y-13861428D01*
X193650000Y-14004285D01*
X193364285Y-14147142D01*
X192935714Y-14147142D01*
X196507142Y-14147142D02*
X196507142Y-12575714D01*
X196364285Y-12290000D01*
X196078571Y-12147142D01*
X195507142Y-12147142D01*
X195221428Y-12290000D01*
X196507142Y-14004285D02*
X196221428Y-14147142D01*
X195507142Y-14147142D01*
X195221428Y-14004285D01*
X195078571Y-13718571D01*
X195078571Y-13432857D01*
X195221428Y-13147142D01*
X195507142Y-13004285D01*
X196221428Y-13004285D01*
X196507142Y-12861428D01*
X197935714Y-14147142D02*
X197935714Y-12147142D01*
X197935714Y-12718571D02*
X198078571Y-12432857D01*
X198221428Y-12290000D01*
X198507142Y-12147142D01*
X198792857Y-12147142D01*
X201078571Y-14147142D02*
X201078571Y-11147142D01*
X201078571Y-14004285D02*
X200792857Y-14147142D01*
X200221428Y-14147142D01*
X199935714Y-14004285D01*
X199792857Y-13861428D01*
X199650000Y-13575714D01*
X199650000Y-12718571D01*
X199792857Y-12432857D01*
X199935714Y-12290000D01*
X200221428Y-12147142D01*
X200792857Y-12147142D01*
X201078571Y-12290000D01*
X204507142Y-12147142D02*
X205221428Y-14147142D01*
X205935714Y-12147142D01*
X207650000Y-11147142D02*
X207935714Y-11147142D01*
X208221428Y-11290000D01*
X208364285Y-11432857D01*
X208507142Y-11718571D01*
X208650000Y-12290000D01*
X208650000Y-13004285D01*
X208507142Y-13575714D01*
X208364285Y-13861428D01*
X208221428Y-14004285D01*
X207935714Y-14147142D01*
X207650000Y-14147142D01*
X207364285Y-14004285D01*
X207221428Y-13861428D01*
X207078571Y-13575714D01*
X206935714Y-13004285D01*
X206935714Y-12290000D01*
X207078571Y-11718571D01*
X207221428Y-11432857D01*
X207364285Y-11290000D01*
X207650000Y-11147142D01*
X163221428Y-17047142D02*
X163221428Y-19475714D01*
X163078571Y-19761428D01*
X162935714Y-19904285D01*
X162650000Y-20047142D01*
X162221428Y-20047142D01*
X161935714Y-19904285D01*
X163221428Y-18904285D02*
X162935714Y-19047142D01*
X162364285Y-19047142D01*
X162078571Y-18904285D01*
X161935714Y-18761428D01*
X161792857Y-18475714D01*
X161792857Y-17618571D01*
X161935714Y-17332857D01*
X162078571Y-17190000D01*
X162364285Y-17047142D01*
X162935714Y-17047142D01*
X163221428Y-17190000D01*
X164650000Y-19047142D02*
X164650000Y-17047142D01*
X164650000Y-16047142D02*
X164507142Y-16190000D01*
X164650000Y-16332857D01*
X164792857Y-16190000D01*
X164650000Y-16047142D01*
X164650000Y-16332857D01*
X165650000Y-17047142D02*
X166792857Y-17047142D01*
X166078571Y-16047142D02*
X166078571Y-18618571D01*
X166221428Y-18904285D01*
X166507142Y-19047142D01*
X166792857Y-19047142D01*
X167792857Y-19047142D02*
X167792857Y-16047142D01*
X169078571Y-19047142D02*
X169078571Y-17475714D01*
X168935714Y-17190000D01*
X168650000Y-17047142D01*
X168221428Y-17047142D01*
X167935714Y-17190000D01*
X167792857Y-17332857D01*
X171792857Y-17047142D02*
X171792857Y-19047142D01*
X170507142Y-17047142D02*
X170507142Y-18618571D01*
X170650000Y-18904285D01*
X170935714Y-19047142D01*
X171364285Y-19047142D01*
X171650000Y-18904285D01*
X171792857Y-18761428D01*
X173221428Y-19047142D02*
X173221428Y-16047142D01*
X173221428Y-17190000D02*
X173507142Y-17047142D01*
X174078571Y-17047142D01*
X174364285Y-17190000D01*
X174507142Y-17332857D01*
X174650000Y-17618571D01*
X174650000Y-18475714D01*
X174507142Y-18761428D01*
X174364285Y-18904285D01*
X174078571Y-19047142D01*
X173507142Y-19047142D01*
X173221428Y-18904285D01*
X175935714Y-18761428D02*
X176078571Y-18904285D01*
X175935714Y-19047142D01*
X175792857Y-18904285D01*
X175935714Y-18761428D01*
X175935714Y-19047142D01*
X178650000Y-18904285D02*
X178364285Y-19047142D01*
X177792857Y-19047142D01*
X177507142Y-18904285D01*
X177364285Y-18761428D01*
X177221428Y-18475714D01*
X177221428Y-17618571D01*
X177364285Y-17332857D01*
X177507142Y-17190000D01*
X177792857Y-17047142D01*
X178364285Y-17047142D01*
X178650000Y-17190000D01*
X180364285Y-19047142D02*
X180078571Y-18904285D01*
X179935714Y-18761428D01*
X179792857Y-18475714D01*
X179792857Y-17618571D01*
X179935714Y-17332857D01*
X180078571Y-17190000D01*
X180364285Y-17047142D01*
X180792857Y-17047142D01*
X181078571Y-17190000D01*
X181221428Y-17332857D01*
X181364285Y-17618571D01*
X181364285Y-18475714D01*
X181221428Y-18761428D01*
X181078571Y-18904285D01*
X180792857Y-19047142D01*
X180364285Y-19047142D01*
X182650000Y-19047142D02*
X182650000Y-17047142D01*
X182650000Y-17332857D02*
X182792857Y-17190000D01*
X183078571Y-17047142D01*
X183507142Y-17047142D01*
X183792857Y-17190000D01*
X183935714Y-17475714D01*
X183935714Y-19047142D01*
X183935714Y-17475714D02*
X184078571Y-17190000D01*
X184364285Y-17047142D01*
X184792857Y-17047142D01*
X185078571Y-17190000D01*
X185221428Y-17475714D01*
X185221428Y-19047142D01*
X188792857Y-15904285D02*
X186221428Y-19761428D01*
X189507142Y-17047142D02*
X190078571Y-19047142D01*
X190650000Y-17618571D01*
X191221428Y-19047142D01*
X191792857Y-17047142D01*
X192935714Y-19047142D02*
X192935714Y-17047142D01*
X192935714Y-16047142D02*
X192792857Y-16190000D01*
X192935714Y-16332857D01*
X193078571Y-16190000D01*
X192935714Y-16047142D01*
X192935714Y-16332857D01*
X195650000Y-19047142D02*
X195650000Y-16047142D01*
X195650000Y-18904285D02*
X195364285Y-19047142D01*
X194792857Y-19047142D01*
X194507142Y-18904285D01*
X194364285Y-18761428D01*
X194221428Y-18475714D01*
X194221428Y-17618571D01*
X194364285Y-17332857D01*
X194507142Y-17190000D01*
X194792857Y-17047142D01*
X195364285Y-17047142D01*
X195650000Y-17190000D01*
X198364285Y-17047142D02*
X198364285Y-19475714D01*
X198221428Y-19761428D01*
X198078571Y-19904285D01*
X197792857Y-20047142D01*
X197364285Y-20047142D01*
X197078571Y-19904285D01*
X198364285Y-18904285D02*
X198078571Y-19047142D01*
X197507142Y-19047142D01*
X197221428Y-18904285D01*
X197078571Y-18761428D01*
X196935714Y-18475714D01*
X196935714Y-17618571D01*
X197078571Y-17332857D01*
X197221428Y-17190000D01*
X197507142Y-17047142D01*
X198078571Y-17047142D01*
X198364285Y-17190000D01*
X200935714Y-18904285D02*
X200650000Y-19047142D01*
X200078571Y-19047142D01*
X199792857Y-18904285D01*
X199650000Y-18618571D01*
X199650000Y-17475714D01*
X199792857Y-17190000D01*
X200078571Y-17047142D01*
X200650000Y-17047142D01*
X200935714Y-17190000D01*
X201078571Y-17475714D01*
X201078571Y-17761428D01*
X199650000Y-18047142D01*
X201935714Y-17047142D02*
X203078571Y-17047142D01*
X202364285Y-16047142D02*
X202364285Y-18618571D01*
X202507142Y-18904285D01*
X202792857Y-19047142D01*
X203078571Y-19047142D01*
X204078571Y-17904285D02*
X206364285Y-17904285D01*
D11*
%TO.C,H8*%
X220980000Y-59690000D03*
D12*
X220980000Y-59690000D03*
%TD*%
D11*
%TO.C,H7*%
X220980000Y-16002000D03*
D12*
X220980000Y-16002000D03*
%TD*%
D11*
%TO.C,H6*%
X149860000Y-59690000D03*
D12*
X149860000Y-59690000D03*
%TD*%
D11*
%TO.C,H5*%
X149860000Y-16002000D03*
D12*
X149860000Y-16002000D03*
%TD*%
D11*
%TO.C,H4*%
X78740000Y-59690000D03*
D12*
X78740000Y-59690000D03*
%TD*%
D11*
%TO.C,H3*%
X78740000Y-16002000D03*
D12*
X78740000Y-16002000D03*
%TD*%
D11*
%TO.C,H2*%
X7620000Y-59690000D03*
D12*
X7620000Y-59690000D03*
%TD*%
D11*
%TO.C,H1*%
X7620000Y-16002000D03*
D12*
X7620000Y-16002000D03*
%TD*%
D13*
%TO.C,FSR2*%
X123190000Y-62230000D03*
D14*
X123190000Y-59690000D03*
D13*
X120650000Y-62230000D03*
D15*
X120650000Y-59690000D03*
%TD*%
D16*
%TO.C,J3*%
X114300000Y-60452000D03*
D17*
X109220000Y-60452000D03*
%TD*%
D13*
%TO.C,FSR3*%
X179070000Y-62230000D03*
D14*
X179070000Y-59690000D03*
D13*
X176530000Y-62230000D03*
D15*
X176530000Y-59690000D03*
%TD*%
D13*
%TO.C,FSR1*%
X53340000Y-62230000D03*
D14*
X53340000Y-59690000D03*
D13*
X50800000Y-62230000D03*
D15*
X50800000Y-59690000D03*
%TD*%
D18*
%TO.C,LED21*%
X127452856Y-47506666D03*
X127452856Y-50706666D03*
X132352856Y-47506666D03*
X132352856Y-50706666D03*
%TD*%
%TO.C,LED32*%
X221070000Y-69520000D03*
X221070000Y-72720000D03*
X225970000Y-69520000D03*
X225970000Y-72720000D03*
%TD*%
%TO.C,LED31*%
X189864284Y-69520000D03*
X189864284Y-72720000D03*
X194764284Y-69520000D03*
X194764284Y-72720000D03*
%TD*%
%TO.C,LED30*%
X158658570Y-69520000D03*
X158658570Y-72720000D03*
X163558570Y-69520000D03*
X163558570Y-72720000D03*
%TD*%
%TO.C,LED29*%
X127452856Y-69520000D03*
X127452856Y-72720000D03*
X132352856Y-69520000D03*
X132352856Y-72720000D03*
%TD*%
%TO.C,LED28*%
X96247142Y-69520000D03*
X96247142Y-72720000D03*
X101147142Y-69520000D03*
X101147142Y-72720000D03*
%TD*%
%TO.C,LED27*%
X65041428Y-69520000D03*
X65041428Y-72720000D03*
X69941428Y-69520000D03*
X69941428Y-72720000D03*
%TD*%
%TO.C,LED26*%
X33835714Y-69520000D03*
X33835714Y-72720000D03*
X38735714Y-69520000D03*
X38735714Y-72720000D03*
%TD*%
%TO.C,LED25*%
X2630000Y-69520000D03*
X2630000Y-72720000D03*
X7530000Y-69520000D03*
X7530000Y-72720000D03*
%TD*%
%TO.C,LED24*%
X221070000Y-47506666D03*
X221070000Y-50706666D03*
X225970000Y-47506666D03*
X225970000Y-50706666D03*
%TD*%
%TO.C,LED23*%
X189864284Y-47506666D03*
X189864284Y-50706666D03*
X194764284Y-47506666D03*
X194764284Y-50706666D03*
%TD*%
%TO.C,LED22*%
X158658570Y-47506666D03*
X158658570Y-50706666D03*
X163558570Y-47506666D03*
X163558570Y-50706666D03*
%TD*%
%TO.C,LED20*%
X96247142Y-47506666D03*
X96247142Y-50706666D03*
X101147142Y-47506666D03*
X101147142Y-50706666D03*
%TD*%
%TO.C,LED19*%
X65041428Y-47506666D03*
X65041428Y-50706666D03*
X69941428Y-47506666D03*
X69941428Y-50706666D03*
%TD*%
%TO.C,LED18*%
X33835714Y-47506666D03*
X33835714Y-50706666D03*
X38735714Y-47506666D03*
X38735714Y-50706666D03*
%TD*%
%TO.C,LED17*%
X2630000Y-47506666D03*
X2630000Y-50706666D03*
X7530000Y-47506666D03*
X7530000Y-50706666D03*
%TD*%
%TO.C,LED16*%
X221070000Y-25070000D03*
X221070000Y-28270000D03*
X225970000Y-25070000D03*
X225970000Y-28270000D03*
%TD*%
%TO.C,LED15*%
X189798572Y-25070000D03*
X189798572Y-28270000D03*
X194698572Y-25070000D03*
X194698572Y-28270000D03*
%TD*%
%TO.C,LED14*%
X158527144Y-25070000D03*
X158527144Y-28270000D03*
X163427144Y-25070000D03*
X163427144Y-28270000D03*
%TD*%
%TO.C,LED13*%
X127255716Y-25070000D03*
X127255716Y-28270000D03*
X132155716Y-25070000D03*
X132155716Y-28270000D03*
%TD*%
%TO.C,LED12*%
X95984288Y-25070000D03*
X95984288Y-28270000D03*
X100884288Y-25070000D03*
X100884288Y-28270000D03*
%TD*%
%TO.C,LED11*%
X64712860Y-25070000D03*
X64712860Y-28270000D03*
X69612860Y-25070000D03*
X69612860Y-28270000D03*
%TD*%
%TO.C,LED10*%
X33441432Y-25070000D03*
X33441432Y-28270000D03*
X38341432Y-25070000D03*
X38341432Y-28270000D03*
%TD*%
%TO.C,LED9*%
X2630000Y-25070000D03*
X2630000Y-28270000D03*
X7530000Y-25070000D03*
X7530000Y-28270000D03*
%TD*%
%TO.C,LED8*%
X221070000Y-3480000D03*
X221070000Y-6680000D03*
X225970000Y-3480000D03*
X225970000Y-6680000D03*
%TD*%
%TO.C,LED7*%
X189864284Y-3480000D03*
X189864284Y-6680000D03*
X194764284Y-3480000D03*
X194764284Y-6680000D03*
%TD*%
%TO.C,LED6*%
X158658570Y-3480000D03*
X158658570Y-6680000D03*
X163558570Y-3480000D03*
X163558570Y-6680000D03*
%TD*%
%TO.C,LED5*%
X127452856Y-3480000D03*
X127452856Y-6680000D03*
X132352856Y-3480000D03*
X132352856Y-6680000D03*
%TD*%
%TO.C,LED4*%
X96247142Y-3480000D03*
X96247142Y-6680000D03*
X101147142Y-3480000D03*
X101147142Y-6680000D03*
%TD*%
%TO.C,LED3*%
X65041428Y-3480000D03*
X65041428Y-6680000D03*
X69941428Y-3480000D03*
X69941428Y-6680000D03*
%TD*%
%TO.C,LED2*%
X33835714Y-3480000D03*
X33835714Y-6680000D03*
X38735714Y-3480000D03*
X38735714Y-6680000D03*
%TD*%
%TO.C,LED1*%
X2630000Y-3480000D03*
X2630000Y-6680000D03*
X7530000Y-3480000D03*
X7530000Y-6680000D03*
%TD*%
D16*
%TO.C,J2*%
X212598000Y-60960000D03*
X207518000Y-60960000D03*
D17*
X202438000Y-60960000D03*
%TD*%
D16*
%TO.C,J1*%
X26416000Y-60960000D03*
X21336000Y-60960000D03*
D17*
X16256000Y-60960000D03*
%TD*%
M02*
