%TF.GenerationSoftware,KiCad,Pcbnew,(5.1.10)-1*%
%TF.CreationDate,2021-06-03T19:49:57-05:00*%
%TF.ProjectId,step_led_panel,73746570-5f6c-4656-945f-70616e656c2e,rev?*%
%TF.SameCoordinates,Original*%
%TF.FileFunction,Copper,L1,Top*%
%TF.FilePolarity,Positive*%
%FSLAX46Y46*%
G04 Gerber Fmt 4.6, Leading zero omitted, Abs format (unit mm)*
G04 Created by KiCad (PCBNEW (5.1.10)-1) date 2021-06-03 19:49:57*
%MOMM*%
%LPD*%
G01*
G04 APERTURE LIST*
%TA.AperFunction,NonConductor*%
%ADD10C,0.400000*%
%TD*%
%TA.AperFunction,ConnectorPad*%
%ADD11C,9.200000*%
%TD*%
%TA.AperFunction,ComponentPad*%
%ADD12C,5.700000*%
%TD*%
%TA.AperFunction,ComponentPad*%
%ADD13C,2.200000*%
%TD*%
%TA.AperFunction,ComponentPad*%
%ADD14R,2.200000X2.200000*%
%TD*%
%TA.AperFunction,ComponentPad*%
%ADD15C,2.600000*%
%TD*%
%TA.AperFunction,ComponentPad*%
%ADD16R,2.600000X2.600000*%
%TD*%
%TA.AperFunction,SMDPad,CuDef*%
%ADD17R,1.500000X1.000000*%
%TD*%
%TA.AperFunction,ViaPad*%
%ADD18C,0.800000*%
%TD*%
%TA.AperFunction,Conductor*%
%ADD19C,0.400000*%
%TD*%
%TA.AperFunction,Conductor*%
%ADD20C,0.600000*%
%TD*%
G04 APERTURE END LIST*
D10*
X159792857Y-14147142D02*
X159792857Y-11147142D01*
X159792857Y-12575714D02*
X161507142Y-12575714D01*
X161507142Y-14147142D02*
X161507142Y-11147142D01*
X164221428Y-14147142D02*
X164221428Y-12575714D01*
X164078571Y-12290000D01*
X163792857Y-12147142D01*
X163221428Y-12147142D01*
X162935714Y-12290000D01*
X164221428Y-14004285D02*
X163935714Y-14147142D01*
X163221428Y-14147142D01*
X162935714Y-14004285D01*
X162792857Y-13718571D01*
X162792857Y-13432857D01*
X162935714Y-13147142D01*
X163221428Y-13004285D01*
X163935714Y-13004285D01*
X164221428Y-12861428D01*
X166078571Y-14147142D02*
X165792857Y-14004285D01*
X165650000Y-13718571D01*
X165650000Y-11147142D01*
X166792857Y-12147142D02*
X167935714Y-12147142D01*
X167221428Y-14147142D02*
X167221428Y-11575714D01*
X167364285Y-11290000D01*
X167650000Y-11147142D01*
X167935714Y-11147142D01*
X168935714Y-12147142D02*
X168935714Y-15147142D01*
X168935714Y-12290000D02*
X169221428Y-12147142D01*
X169792857Y-12147142D01*
X170078571Y-12290000D01*
X170221428Y-12432857D01*
X170364285Y-12718571D01*
X170364285Y-13575714D01*
X170221428Y-13861428D01*
X170078571Y-14004285D01*
X169792857Y-14147142D01*
X169221428Y-14147142D01*
X168935714Y-14004285D01*
X172935714Y-14147142D02*
X172935714Y-12575714D01*
X172792857Y-12290000D01*
X172507142Y-12147142D01*
X171935714Y-12147142D01*
X171650000Y-12290000D01*
X172935714Y-14004285D02*
X172650000Y-14147142D01*
X171935714Y-14147142D01*
X171650000Y-14004285D01*
X171507142Y-13718571D01*
X171507142Y-13432857D01*
X171650000Y-13147142D01*
X171935714Y-13004285D01*
X172650000Y-13004285D01*
X172935714Y-12861428D01*
X175650000Y-14147142D02*
X175650000Y-11147142D01*
X175650000Y-14004285D02*
X175364285Y-14147142D01*
X174792857Y-14147142D01*
X174507142Y-14004285D01*
X174364285Y-13861428D01*
X174221428Y-13575714D01*
X174221428Y-12718571D01*
X174364285Y-12432857D01*
X174507142Y-12290000D01*
X174792857Y-12147142D01*
X175364285Y-12147142D01*
X175650000Y-12290000D01*
X180792857Y-14147142D02*
X179364285Y-14147142D01*
X179364285Y-11147142D01*
X181792857Y-12575714D02*
X182792857Y-12575714D01*
X183221428Y-14147142D02*
X181792857Y-14147142D01*
X181792857Y-11147142D01*
X183221428Y-11147142D01*
X184507142Y-14147142D02*
X184507142Y-11147142D01*
X185221428Y-11147142D01*
X185650000Y-11290000D01*
X185935714Y-11575714D01*
X186078571Y-11861428D01*
X186221428Y-12432857D01*
X186221428Y-12861428D01*
X186078571Y-13432857D01*
X185935714Y-13718571D01*
X185650000Y-14004285D01*
X185221428Y-14147142D01*
X184507142Y-14147142D01*
X189792857Y-14147142D02*
X189792857Y-11147142D01*
X189792857Y-12290000D02*
X190078571Y-12147142D01*
X190650000Y-12147142D01*
X190935714Y-12290000D01*
X191078571Y-12432857D01*
X191221428Y-12718571D01*
X191221428Y-13575714D01*
X191078571Y-13861428D01*
X190935714Y-14004285D01*
X190650000Y-14147142D01*
X190078571Y-14147142D01*
X189792857Y-14004285D01*
X192935714Y-14147142D02*
X192650000Y-14004285D01*
X192507142Y-13861428D01*
X192364285Y-13575714D01*
X192364285Y-12718571D01*
X192507142Y-12432857D01*
X192650000Y-12290000D01*
X192935714Y-12147142D01*
X193364285Y-12147142D01*
X193650000Y-12290000D01*
X193792857Y-12432857D01*
X193935714Y-12718571D01*
X193935714Y-13575714D01*
X193792857Y-13861428D01*
X193650000Y-14004285D01*
X193364285Y-14147142D01*
X192935714Y-14147142D01*
X196507142Y-14147142D02*
X196507142Y-12575714D01*
X196364285Y-12290000D01*
X196078571Y-12147142D01*
X195507142Y-12147142D01*
X195221428Y-12290000D01*
X196507142Y-14004285D02*
X196221428Y-14147142D01*
X195507142Y-14147142D01*
X195221428Y-14004285D01*
X195078571Y-13718571D01*
X195078571Y-13432857D01*
X195221428Y-13147142D01*
X195507142Y-13004285D01*
X196221428Y-13004285D01*
X196507142Y-12861428D01*
X197935714Y-14147142D02*
X197935714Y-12147142D01*
X197935714Y-12718571D02*
X198078571Y-12432857D01*
X198221428Y-12290000D01*
X198507142Y-12147142D01*
X198792857Y-12147142D01*
X201078571Y-14147142D02*
X201078571Y-11147142D01*
X201078571Y-14004285D02*
X200792857Y-14147142D01*
X200221428Y-14147142D01*
X199935714Y-14004285D01*
X199792857Y-13861428D01*
X199650000Y-13575714D01*
X199650000Y-12718571D01*
X199792857Y-12432857D01*
X199935714Y-12290000D01*
X200221428Y-12147142D01*
X200792857Y-12147142D01*
X201078571Y-12290000D01*
X204507142Y-12147142D02*
X205221428Y-14147142D01*
X205935714Y-12147142D01*
X207650000Y-11147142D02*
X207935714Y-11147142D01*
X208221428Y-11290000D01*
X208364285Y-11432857D01*
X208507142Y-11718571D01*
X208650000Y-12290000D01*
X208650000Y-13004285D01*
X208507142Y-13575714D01*
X208364285Y-13861428D01*
X208221428Y-14004285D01*
X207935714Y-14147142D01*
X207650000Y-14147142D01*
X207364285Y-14004285D01*
X207221428Y-13861428D01*
X207078571Y-13575714D01*
X206935714Y-13004285D01*
X206935714Y-12290000D01*
X207078571Y-11718571D01*
X207221428Y-11432857D01*
X207364285Y-11290000D01*
X207650000Y-11147142D01*
X163221428Y-17047142D02*
X163221428Y-19475714D01*
X163078571Y-19761428D01*
X162935714Y-19904285D01*
X162650000Y-20047142D01*
X162221428Y-20047142D01*
X161935714Y-19904285D01*
X163221428Y-18904285D02*
X162935714Y-19047142D01*
X162364285Y-19047142D01*
X162078571Y-18904285D01*
X161935714Y-18761428D01*
X161792857Y-18475714D01*
X161792857Y-17618571D01*
X161935714Y-17332857D01*
X162078571Y-17190000D01*
X162364285Y-17047142D01*
X162935714Y-17047142D01*
X163221428Y-17190000D01*
X164650000Y-19047142D02*
X164650000Y-17047142D01*
X164650000Y-16047142D02*
X164507142Y-16190000D01*
X164650000Y-16332857D01*
X164792857Y-16190000D01*
X164650000Y-16047142D01*
X164650000Y-16332857D01*
X165650000Y-17047142D02*
X166792857Y-17047142D01*
X166078571Y-16047142D02*
X166078571Y-18618571D01*
X166221428Y-18904285D01*
X166507142Y-19047142D01*
X166792857Y-19047142D01*
X167792857Y-19047142D02*
X167792857Y-16047142D01*
X169078571Y-19047142D02*
X169078571Y-17475714D01*
X168935714Y-17190000D01*
X168650000Y-17047142D01*
X168221428Y-17047142D01*
X167935714Y-17190000D01*
X167792857Y-17332857D01*
X171792857Y-17047142D02*
X171792857Y-19047142D01*
X170507142Y-17047142D02*
X170507142Y-18618571D01*
X170650000Y-18904285D01*
X170935714Y-19047142D01*
X171364285Y-19047142D01*
X171650000Y-18904285D01*
X171792857Y-18761428D01*
X173221428Y-19047142D02*
X173221428Y-16047142D01*
X173221428Y-17190000D02*
X173507142Y-17047142D01*
X174078571Y-17047142D01*
X174364285Y-17190000D01*
X174507142Y-17332857D01*
X174650000Y-17618571D01*
X174650000Y-18475714D01*
X174507142Y-18761428D01*
X174364285Y-18904285D01*
X174078571Y-19047142D01*
X173507142Y-19047142D01*
X173221428Y-18904285D01*
X175935714Y-18761428D02*
X176078571Y-18904285D01*
X175935714Y-19047142D01*
X175792857Y-18904285D01*
X175935714Y-18761428D01*
X175935714Y-19047142D01*
X178650000Y-18904285D02*
X178364285Y-19047142D01*
X177792857Y-19047142D01*
X177507142Y-18904285D01*
X177364285Y-18761428D01*
X177221428Y-18475714D01*
X177221428Y-17618571D01*
X177364285Y-17332857D01*
X177507142Y-17190000D01*
X177792857Y-17047142D01*
X178364285Y-17047142D01*
X178650000Y-17190000D01*
X180364285Y-19047142D02*
X180078571Y-18904285D01*
X179935714Y-18761428D01*
X179792857Y-18475714D01*
X179792857Y-17618571D01*
X179935714Y-17332857D01*
X180078571Y-17190000D01*
X180364285Y-17047142D01*
X180792857Y-17047142D01*
X181078571Y-17190000D01*
X181221428Y-17332857D01*
X181364285Y-17618571D01*
X181364285Y-18475714D01*
X181221428Y-18761428D01*
X181078571Y-18904285D01*
X180792857Y-19047142D01*
X180364285Y-19047142D01*
X182650000Y-19047142D02*
X182650000Y-17047142D01*
X182650000Y-17332857D02*
X182792857Y-17190000D01*
X183078571Y-17047142D01*
X183507142Y-17047142D01*
X183792857Y-17190000D01*
X183935714Y-17475714D01*
X183935714Y-19047142D01*
X183935714Y-17475714D02*
X184078571Y-17190000D01*
X184364285Y-17047142D01*
X184792857Y-17047142D01*
X185078571Y-17190000D01*
X185221428Y-17475714D01*
X185221428Y-19047142D01*
X188792857Y-15904285D02*
X186221428Y-19761428D01*
X189507142Y-17047142D02*
X190078571Y-19047142D01*
X190650000Y-17618571D01*
X191221428Y-19047142D01*
X191792857Y-17047142D01*
X192935714Y-19047142D02*
X192935714Y-17047142D01*
X192935714Y-16047142D02*
X192792857Y-16190000D01*
X192935714Y-16332857D01*
X193078571Y-16190000D01*
X192935714Y-16047142D01*
X192935714Y-16332857D01*
X195650000Y-19047142D02*
X195650000Y-16047142D01*
X195650000Y-18904285D02*
X195364285Y-19047142D01*
X194792857Y-19047142D01*
X194507142Y-18904285D01*
X194364285Y-18761428D01*
X194221428Y-18475714D01*
X194221428Y-17618571D01*
X194364285Y-17332857D01*
X194507142Y-17190000D01*
X194792857Y-17047142D01*
X195364285Y-17047142D01*
X195650000Y-17190000D01*
X198364285Y-17047142D02*
X198364285Y-19475714D01*
X198221428Y-19761428D01*
X198078571Y-19904285D01*
X197792857Y-20047142D01*
X197364285Y-20047142D01*
X197078571Y-19904285D01*
X198364285Y-18904285D02*
X198078571Y-19047142D01*
X197507142Y-19047142D01*
X197221428Y-18904285D01*
X197078571Y-18761428D01*
X196935714Y-18475714D01*
X196935714Y-17618571D01*
X197078571Y-17332857D01*
X197221428Y-17190000D01*
X197507142Y-17047142D01*
X198078571Y-17047142D01*
X198364285Y-17190000D01*
X200935714Y-18904285D02*
X200650000Y-19047142D01*
X200078571Y-19047142D01*
X199792857Y-18904285D01*
X199650000Y-18618571D01*
X199650000Y-17475714D01*
X199792857Y-17190000D01*
X200078571Y-17047142D01*
X200650000Y-17047142D01*
X200935714Y-17190000D01*
X201078571Y-17475714D01*
X201078571Y-17761428D01*
X199650000Y-18047142D01*
X201935714Y-17047142D02*
X203078571Y-17047142D01*
X202364285Y-16047142D02*
X202364285Y-18618571D01*
X202507142Y-18904285D01*
X202792857Y-19047142D01*
X203078571Y-19047142D01*
X204078571Y-17904285D02*
X206364285Y-17904285D01*
D11*
%TO.P,H8,1*%
%TO.N,N/C*%
X220980000Y-59690000D03*
D12*
X220980000Y-59690000D03*
%TD*%
D11*
%TO.P,H7,1*%
%TO.N,N/C*%
X220980000Y-16002000D03*
D12*
X220980000Y-16002000D03*
%TD*%
D11*
%TO.P,H6,1*%
%TO.N,N/C*%
X149860000Y-59690000D03*
D12*
X149860000Y-59690000D03*
%TD*%
D11*
%TO.P,H5,1*%
%TO.N,N/C*%
X149860000Y-16002000D03*
D12*
X149860000Y-16002000D03*
%TD*%
D11*
%TO.P,H4,1*%
%TO.N,N/C*%
X78740000Y-59690000D03*
D12*
X78740000Y-59690000D03*
%TD*%
D11*
%TO.P,H3,1*%
%TO.N,N/C*%
X78740000Y-16002000D03*
D12*
X78740000Y-16002000D03*
%TD*%
D11*
%TO.P,H2,1*%
%TO.N,N/C*%
X7620000Y-59690000D03*
D12*
X7620000Y-59690000D03*
%TD*%
D11*
%TO.P,H1,1*%
%TO.N,N/C*%
X7620000Y-16002000D03*
D12*
X7620000Y-16002000D03*
%TD*%
D13*
%TO.P,FSR2,2*%
%TO.N,Net-(FSR1-Pad2)*%
X123190000Y-59690000D03*
D14*
%TO.P,FSR2,1*%
%TO.N,Net-(FSR1-Pad1)*%
X120650000Y-59690000D03*
%TD*%
D15*
%TO.P,J3,2*%
%TO.N,Net-(FSR1-Pad2)*%
X114300000Y-60452000D03*
D16*
%TO.P,J3,1*%
%TO.N,Net-(FSR1-Pad1)*%
X109220000Y-60452000D03*
%TD*%
D13*
%TO.P,FSR3,2*%
%TO.N,Net-(FSR1-Pad2)*%
X179070000Y-59690000D03*
D14*
%TO.P,FSR3,1*%
%TO.N,Net-(FSR1-Pad1)*%
X176530000Y-59690000D03*
%TD*%
D13*
%TO.P,FSR1,2*%
%TO.N,Net-(FSR1-Pad2)*%
X53340000Y-59690000D03*
D14*
%TO.P,FSR1,1*%
%TO.N,Net-(FSR1-Pad1)*%
X50800000Y-59690000D03*
%TD*%
D17*
%TO.P,LED21,1*%
%TO.N,+5V*%
X127452856Y-47506666D03*
%TO.P,LED21,2*%
%TO.N,Net-(LED21-Pad2)*%
X127452856Y-50706666D03*
%TO.P,LED21,4*%
%TO.N,Net-(LED20-Pad2)*%
X132352856Y-47506666D03*
%TO.P,LED21,3*%
%TO.N,GND*%
X132352856Y-50706666D03*
%TD*%
%TO.P,LED32,1*%
%TO.N,+5V*%
X221070000Y-69520000D03*
%TO.P,LED32,2*%
%TO.N,/D_OUT*%
X221070000Y-72720000D03*
%TO.P,LED32,4*%
%TO.N,Net-(LED31-Pad2)*%
X225970000Y-69520000D03*
%TO.P,LED32,3*%
%TO.N,GND*%
X225970000Y-72720000D03*
%TD*%
%TO.P,LED31,1*%
%TO.N,+5V*%
X189864284Y-69520000D03*
%TO.P,LED31,2*%
%TO.N,Net-(LED31-Pad2)*%
X189864284Y-72720000D03*
%TO.P,LED31,4*%
%TO.N,Net-(LED30-Pad2)*%
X194764284Y-69520000D03*
%TO.P,LED31,3*%
%TO.N,GND*%
X194764284Y-72720000D03*
%TD*%
%TO.P,LED30,1*%
%TO.N,+5V*%
X158658570Y-69520000D03*
%TO.P,LED30,2*%
%TO.N,Net-(LED30-Pad2)*%
X158658570Y-72720000D03*
%TO.P,LED30,4*%
%TO.N,Net-(LED29-Pad2)*%
X163558570Y-69520000D03*
%TO.P,LED30,3*%
%TO.N,GND*%
X163558570Y-72720000D03*
%TD*%
%TO.P,LED29,1*%
%TO.N,+5V*%
X127452856Y-69520000D03*
%TO.P,LED29,2*%
%TO.N,Net-(LED29-Pad2)*%
X127452856Y-72720000D03*
%TO.P,LED29,4*%
%TO.N,Net-(LED28-Pad2)*%
X132352856Y-69520000D03*
%TO.P,LED29,3*%
%TO.N,GND*%
X132352856Y-72720000D03*
%TD*%
%TO.P,LED28,1*%
%TO.N,+5V*%
X96247142Y-69520000D03*
%TO.P,LED28,2*%
%TO.N,Net-(LED28-Pad2)*%
X96247142Y-72720000D03*
%TO.P,LED28,4*%
%TO.N,Net-(LED27-Pad2)*%
X101147142Y-69520000D03*
%TO.P,LED28,3*%
%TO.N,GND*%
X101147142Y-72720000D03*
%TD*%
%TO.P,LED27,1*%
%TO.N,+5V*%
X65041428Y-69520000D03*
%TO.P,LED27,2*%
%TO.N,Net-(LED27-Pad2)*%
X65041428Y-72720000D03*
%TO.P,LED27,4*%
%TO.N,Net-(LED26-Pad2)*%
X69941428Y-69520000D03*
%TO.P,LED27,3*%
%TO.N,GND*%
X69941428Y-72720000D03*
%TD*%
%TO.P,LED26,1*%
%TO.N,+5V*%
X33835714Y-69520000D03*
%TO.P,LED26,2*%
%TO.N,Net-(LED26-Pad2)*%
X33835714Y-72720000D03*
%TO.P,LED26,4*%
%TO.N,Net-(LED25-Pad2)*%
X38735714Y-69520000D03*
%TO.P,LED26,3*%
%TO.N,GND*%
X38735714Y-72720000D03*
%TD*%
%TO.P,LED25,1*%
%TO.N,+5V*%
X2630000Y-69520000D03*
%TO.P,LED25,2*%
%TO.N,Net-(LED25-Pad2)*%
X2630000Y-72720000D03*
%TO.P,LED25,4*%
%TO.N,Net-(LED24-Pad2)*%
X7530000Y-69520000D03*
%TO.P,LED25,3*%
%TO.N,GND*%
X7530000Y-72720000D03*
%TD*%
%TO.P,LED24,1*%
%TO.N,+5V*%
X221070000Y-47506666D03*
%TO.P,LED24,2*%
%TO.N,Net-(LED24-Pad2)*%
X221070000Y-50706666D03*
%TO.P,LED24,4*%
%TO.N,Net-(LED23-Pad2)*%
X225970000Y-47506666D03*
%TO.P,LED24,3*%
%TO.N,GND*%
X225970000Y-50706666D03*
%TD*%
%TO.P,LED23,1*%
%TO.N,+5V*%
X189864284Y-47506666D03*
%TO.P,LED23,2*%
%TO.N,Net-(LED23-Pad2)*%
X189864284Y-50706666D03*
%TO.P,LED23,4*%
%TO.N,Net-(LED22-Pad2)*%
X194764284Y-47506666D03*
%TO.P,LED23,3*%
%TO.N,GND*%
X194764284Y-50706666D03*
%TD*%
%TO.P,LED22,1*%
%TO.N,+5V*%
X158658570Y-47506666D03*
%TO.P,LED22,2*%
%TO.N,Net-(LED22-Pad2)*%
X158658570Y-50706666D03*
%TO.P,LED22,4*%
%TO.N,Net-(LED21-Pad2)*%
X163558570Y-47506666D03*
%TO.P,LED22,3*%
%TO.N,GND*%
X163558570Y-50706666D03*
%TD*%
%TO.P,LED20,1*%
%TO.N,+5V*%
X96247142Y-47506666D03*
%TO.P,LED20,2*%
%TO.N,Net-(LED20-Pad2)*%
X96247142Y-50706666D03*
%TO.P,LED20,4*%
%TO.N,Net-(LED19-Pad2)*%
X101147142Y-47506666D03*
%TO.P,LED20,3*%
%TO.N,GND*%
X101147142Y-50706666D03*
%TD*%
%TO.P,LED19,1*%
%TO.N,+5V*%
X65041428Y-47506666D03*
%TO.P,LED19,2*%
%TO.N,Net-(LED19-Pad2)*%
X65041428Y-50706666D03*
%TO.P,LED19,4*%
%TO.N,Net-(LED18-Pad2)*%
X69941428Y-47506666D03*
%TO.P,LED19,3*%
%TO.N,GND*%
X69941428Y-50706666D03*
%TD*%
%TO.P,LED18,1*%
%TO.N,+5V*%
X33835714Y-47506666D03*
%TO.P,LED18,2*%
%TO.N,Net-(LED18-Pad2)*%
X33835714Y-50706666D03*
%TO.P,LED18,4*%
%TO.N,Net-(LED17-Pad2)*%
X38735714Y-47506666D03*
%TO.P,LED18,3*%
%TO.N,GND*%
X38735714Y-50706666D03*
%TD*%
%TO.P,LED17,1*%
%TO.N,+5V*%
X2630000Y-47506666D03*
%TO.P,LED17,2*%
%TO.N,Net-(LED17-Pad2)*%
X2630000Y-50706666D03*
%TO.P,LED17,4*%
%TO.N,Net-(LED16-Pad2)*%
X7530000Y-47506666D03*
%TO.P,LED17,3*%
%TO.N,GND*%
X7530000Y-50706666D03*
%TD*%
%TO.P,LED16,1*%
%TO.N,+5V*%
X221070000Y-25070000D03*
%TO.P,LED16,2*%
%TO.N,Net-(LED16-Pad2)*%
X221070000Y-28270000D03*
%TO.P,LED16,4*%
%TO.N,Net-(LED15-Pad2)*%
X225970000Y-25070000D03*
%TO.P,LED16,3*%
%TO.N,GND*%
X225970000Y-28270000D03*
%TD*%
%TO.P,LED15,1*%
%TO.N,+5V*%
X189798572Y-25070000D03*
%TO.P,LED15,2*%
%TO.N,Net-(LED15-Pad2)*%
X189798572Y-28270000D03*
%TO.P,LED15,4*%
%TO.N,Net-(LED14-Pad2)*%
X194698572Y-25070000D03*
%TO.P,LED15,3*%
%TO.N,GND*%
X194698572Y-28270000D03*
%TD*%
%TO.P,LED14,1*%
%TO.N,+5V*%
X158527144Y-25070000D03*
%TO.P,LED14,2*%
%TO.N,Net-(LED14-Pad2)*%
X158527144Y-28270000D03*
%TO.P,LED14,4*%
%TO.N,Net-(LED13-Pad2)*%
X163427144Y-25070000D03*
%TO.P,LED14,3*%
%TO.N,GND*%
X163427144Y-28270000D03*
%TD*%
%TO.P,LED13,1*%
%TO.N,+5V*%
X127255716Y-25070000D03*
%TO.P,LED13,2*%
%TO.N,Net-(LED13-Pad2)*%
X127255716Y-28270000D03*
%TO.P,LED13,4*%
%TO.N,Net-(LED12-Pad2)*%
X132155716Y-25070000D03*
%TO.P,LED13,3*%
%TO.N,GND*%
X132155716Y-28270000D03*
%TD*%
%TO.P,LED12,1*%
%TO.N,+5V*%
X95984288Y-25070000D03*
%TO.P,LED12,2*%
%TO.N,Net-(LED12-Pad2)*%
X95984288Y-28270000D03*
%TO.P,LED12,4*%
%TO.N,Net-(LED11-Pad2)*%
X100884288Y-25070000D03*
%TO.P,LED12,3*%
%TO.N,GND*%
X100884288Y-28270000D03*
%TD*%
%TO.P,LED11,1*%
%TO.N,+5V*%
X64712860Y-25070000D03*
%TO.P,LED11,2*%
%TO.N,Net-(LED11-Pad2)*%
X64712860Y-28270000D03*
%TO.P,LED11,4*%
%TO.N,Net-(LED10-Pad2)*%
X69612860Y-25070000D03*
%TO.P,LED11,3*%
%TO.N,GND*%
X69612860Y-28270000D03*
%TD*%
%TO.P,LED10,1*%
%TO.N,+5V*%
X33441432Y-25070000D03*
%TO.P,LED10,2*%
%TO.N,Net-(LED10-Pad2)*%
X33441432Y-28270000D03*
%TO.P,LED10,4*%
%TO.N,Net-(LED10-Pad4)*%
X38341432Y-25070000D03*
%TO.P,LED10,3*%
%TO.N,GND*%
X38341432Y-28270000D03*
%TD*%
%TO.P,LED9,1*%
%TO.N,+5V*%
X2630000Y-25070000D03*
%TO.P,LED9,2*%
%TO.N,Net-(LED10-Pad4)*%
X2630000Y-28270000D03*
%TO.P,LED9,4*%
%TO.N,Net-(LED8-Pad2)*%
X7530000Y-25070000D03*
%TO.P,LED9,3*%
%TO.N,GND*%
X7530000Y-28270000D03*
%TD*%
%TO.P,LED8,1*%
%TO.N,+5V*%
X221070000Y-3480000D03*
%TO.P,LED8,2*%
%TO.N,Net-(LED8-Pad2)*%
X221070000Y-6680000D03*
%TO.P,LED8,4*%
%TO.N,Net-(LED7-Pad2)*%
X225970000Y-3480000D03*
%TO.P,LED8,3*%
%TO.N,GND*%
X225970000Y-6680000D03*
%TD*%
%TO.P,LED7,1*%
%TO.N,+5V*%
X189864284Y-3480000D03*
%TO.P,LED7,2*%
%TO.N,Net-(LED7-Pad2)*%
X189864284Y-6680000D03*
%TO.P,LED7,4*%
%TO.N,Net-(LED6-Pad2)*%
X194764284Y-3480000D03*
%TO.P,LED7,3*%
%TO.N,GND*%
X194764284Y-6680000D03*
%TD*%
%TO.P,LED6,1*%
%TO.N,+5V*%
X158658570Y-3480000D03*
%TO.P,LED6,2*%
%TO.N,Net-(LED6-Pad2)*%
X158658570Y-6680000D03*
%TO.P,LED6,4*%
%TO.N,Net-(LED5-Pad2)*%
X163558570Y-3480000D03*
%TO.P,LED6,3*%
%TO.N,GND*%
X163558570Y-6680000D03*
%TD*%
%TO.P,LED5,1*%
%TO.N,+5V*%
X127452856Y-3480000D03*
%TO.P,LED5,2*%
%TO.N,Net-(LED5-Pad2)*%
X127452856Y-6680000D03*
%TO.P,LED5,4*%
%TO.N,Net-(LED4-Pad2)*%
X132352856Y-3480000D03*
%TO.P,LED5,3*%
%TO.N,GND*%
X132352856Y-6680000D03*
%TD*%
%TO.P,LED4,1*%
%TO.N,+5V*%
X96247142Y-3480000D03*
%TO.P,LED4,2*%
%TO.N,Net-(LED4-Pad2)*%
X96247142Y-6680000D03*
%TO.P,LED4,4*%
%TO.N,Net-(LED3-Pad2)*%
X101147142Y-3480000D03*
%TO.P,LED4,3*%
%TO.N,GND*%
X101147142Y-6680000D03*
%TD*%
%TO.P,LED3,1*%
%TO.N,+5V*%
X65041428Y-3480000D03*
%TO.P,LED3,2*%
%TO.N,Net-(LED3-Pad2)*%
X65041428Y-6680000D03*
%TO.P,LED3,4*%
%TO.N,Net-(LED2-Pad2)*%
X69941428Y-3480000D03*
%TO.P,LED3,3*%
%TO.N,GND*%
X69941428Y-6680000D03*
%TD*%
%TO.P,LED2,1*%
%TO.N,+5V*%
X33835714Y-3480000D03*
%TO.P,LED2,2*%
%TO.N,Net-(LED2-Pad2)*%
X33835714Y-6680000D03*
%TO.P,LED2,4*%
%TO.N,Net-(LED1-Pad2)*%
X38735714Y-3480000D03*
%TO.P,LED2,3*%
%TO.N,GND*%
X38735714Y-6680000D03*
%TD*%
%TO.P,LED1,1*%
%TO.N,+5V*%
X2630000Y-3480000D03*
%TO.P,LED1,2*%
%TO.N,Net-(LED1-Pad2)*%
X2630000Y-6680000D03*
%TO.P,LED1,4*%
%TO.N,/D_IN*%
X7530000Y-3480000D03*
%TO.P,LED1,3*%
%TO.N,GND*%
X7530000Y-6680000D03*
%TD*%
D15*
%TO.P,J2,3*%
%TO.N,GND*%
X212598000Y-60960000D03*
%TO.P,J2,2*%
%TO.N,/D_OUT*%
X207518000Y-60960000D03*
D16*
%TO.P,J2,1*%
%TO.N,+5V*%
X202438000Y-60960000D03*
%TD*%
D15*
%TO.P,J1,3*%
%TO.N,GND*%
X26416000Y-60960000D03*
%TO.P,J1,2*%
%TO.N,/D_IN*%
X21336000Y-60960000D03*
D16*
%TO.P,J1,1*%
%TO.N,+5V*%
X16256000Y-60960000D03*
%TD*%
D18*
%TO.N,/D_IN*%
X9475999Y-3379999D03*
%TO.N,/D_OUT*%
X216154000Y-72644000D03*
%TO.N,Net-(LED8-Pad2)*%
X214884000Y-6604000D03*
X12230010Y-25146000D03*
%TO.N,Net-(LED16-Pad2)*%
X214808000Y-28270000D03*
X10922000Y-47406665D03*
%TO.N,Net-(LED24-Pad2)*%
X214884000Y-50546000D03*
X12192000Y-69596000D03*
%TD*%
D19*
%TO.N,Net-(FSR1-Pad2)*%
X119126000Y-65405000D02*
X114173000Y-60452000D01*
X53340000Y-59944000D02*
X53340000Y-59436000D01*
X58801000Y-65405000D02*
X53340000Y-59944000D01*
X119126000Y-65405000D02*
X58801000Y-65405000D01*
X144145000Y-65405000D02*
X138049000Y-65405000D01*
X178054000Y-65405000D02*
X144145000Y-65405000D01*
X180721000Y-62738000D02*
X178054000Y-65405000D01*
X180721000Y-61341000D02*
X180721000Y-62738000D01*
X179070000Y-59690000D02*
X180721000Y-61341000D01*
X121920000Y-65405000D02*
X119126000Y-65405000D01*
X138049000Y-65405000D02*
X121920000Y-65405000D01*
X122301000Y-65405000D02*
X121920000Y-65405000D01*
X124968000Y-62738000D02*
X122301000Y-65405000D01*
X124968000Y-61468000D02*
X124968000Y-62738000D01*
X123190000Y-59690000D02*
X124968000Y-61468000D01*
%TO.N,Net-(FSR1-Pad1)*%
X111760000Y-57150000D02*
X109220000Y-59690000D01*
X133350000Y-57150000D02*
X111760000Y-57150000D01*
X138430000Y-57150000D02*
X133350000Y-57150000D01*
X141478000Y-54102000D02*
X138430000Y-57150000D01*
X170942000Y-54102000D02*
X141478000Y-54102000D01*
X176530000Y-59690000D02*
X170942000Y-54102000D01*
X134620000Y-57150000D02*
X133350000Y-57150000D01*
X120650000Y-58420000D02*
X119380000Y-57150000D01*
X120650000Y-59690000D02*
X120650000Y-58420000D01*
X55880000Y-54229000D02*
X50673000Y-59436000D01*
X102997000Y-54229000D02*
X55880000Y-54229000D01*
X109220000Y-60452000D02*
X102997000Y-54229000D01*
D20*
%TO.N,GND*%
X163558572Y-73896572D02*
X163682001Y-74020001D01*
X132481999Y-74020001D02*
X100985999Y-74020001D01*
X101147144Y-73858856D02*
X100985999Y-74020001D01*
X8742001Y-74020001D02*
X7620000Y-72898000D01*
X100985999Y-74020001D02*
X69997999Y-74020001D01*
X101147144Y-72720000D02*
X101147144Y-73858856D01*
X194764286Y-73967714D02*
X194711999Y-74020001D01*
X163558572Y-72720000D02*
X163558572Y-73896572D01*
X69941430Y-73963432D02*
X69997999Y-74020001D01*
X38735716Y-72720000D02*
X38735716Y-73999718D01*
X38755999Y-74020001D02*
X8742001Y-74020001D01*
X224683999Y-74020001D02*
X194711999Y-74020001D01*
X163682001Y-74020001D02*
X132481999Y-74020001D01*
X69941430Y-72720000D02*
X69941430Y-73963432D01*
X69997999Y-74020001D02*
X38755999Y-74020001D01*
X194711999Y-74020001D02*
X163682001Y-74020001D01*
X225970000Y-72720000D02*
X225970000Y-72734000D01*
X132352858Y-73890860D02*
X132481999Y-74020001D01*
X225970000Y-72734000D02*
X224683999Y-74020001D01*
X194764286Y-72720000D02*
X194764286Y-73967714D01*
X38735716Y-73999718D02*
X38755999Y-74020001D01*
X132352858Y-72720000D02*
X132352858Y-73890860D01*
%TO.N,+5V*%
X2630000Y-69520000D02*
X2630000Y-69506000D01*
X64917999Y-68219999D02*
X96118001Y-68219999D01*
X65041428Y-68343428D02*
X64917999Y-68219999D01*
X65041428Y-69520000D02*
X65041428Y-68343428D01*
X96247142Y-68349140D02*
X96118001Y-68219999D01*
X189864284Y-68240282D02*
X189844001Y-68219999D01*
X2630000Y-69506000D02*
X3916001Y-68219999D01*
X219857999Y-68219999D02*
X220980000Y-69342000D01*
X96247142Y-69520000D02*
X96247142Y-68349140D01*
X189864284Y-69520000D02*
X189864284Y-68240282D01*
X96118001Y-68219999D02*
X127614001Y-68219999D01*
X127614001Y-68219999D02*
X158602001Y-68219999D01*
X127452856Y-69520000D02*
X127452856Y-68381144D01*
X127452856Y-68381144D02*
X127614001Y-68219999D01*
X33835714Y-68272286D02*
X33888001Y-68219999D01*
X33835714Y-69520000D02*
X33835714Y-68272286D01*
X33888001Y-68219999D02*
X64917999Y-68219999D01*
X158658570Y-68276568D02*
X158602001Y-68219999D01*
X158602001Y-68219999D02*
X189844001Y-68219999D01*
X158658570Y-69520000D02*
X158658570Y-68276568D01*
D19*
%TO.N,Net-(LED25-Pad2)*%
X9360002Y-71374000D02*
X10014001Y-70720001D01*
X3976000Y-71374000D02*
X9360002Y-71374000D01*
X10014001Y-70720001D02*
X37737999Y-70720001D01*
X37737999Y-70720001D02*
X38862000Y-69596000D01*
X2630000Y-72720000D02*
X3976000Y-71374000D01*
%TO.N,Net-(LED26-Pad2)*%
X40602002Y-71374000D02*
X41256001Y-70720001D01*
X41256001Y-70720001D02*
X68979999Y-70720001D01*
X33872000Y-72720000D02*
X35218000Y-71374000D01*
X35218000Y-71374000D02*
X40602002Y-71374000D01*
X68979999Y-70720001D02*
X70104000Y-69596000D01*
%TO.N,Net-(LED27-Pad2)*%
X71844002Y-71374000D02*
X72498001Y-70720001D01*
X66460000Y-71374000D02*
X71844002Y-71374000D01*
X72498001Y-70720001D02*
X100221999Y-70720001D01*
X100221999Y-70720001D02*
X101346000Y-69596000D01*
X65114000Y-72720000D02*
X66460000Y-71374000D01*
%TO.N,Net-(LED28-Pad2)*%
X97448000Y-71374000D02*
X102832002Y-71374000D01*
X103486001Y-70720001D02*
X131209999Y-70720001D01*
X131209999Y-70720001D02*
X132334000Y-69596000D01*
X96102000Y-72720000D02*
X97448000Y-71374000D01*
X102832002Y-71374000D02*
X103486001Y-70720001D01*
%TO.N,Net-(LED29-Pad2)*%
X162451999Y-70720001D02*
X163576000Y-69596000D01*
X128690000Y-71374000D02*
X134074002Y-71374000D01*
X127344000Y-72720000D02*
X128690000Y-71374000D01*
X134074002Y-71374000D02*
X134728001Y-70720001D01*
X134728001Y-70720001D02*
X162451999Y-70720001D01*
%TO.N,Net-(LED30-Pad2)*%
X165970001Y-70720001D02*
X193693999Y-70720001D01*
X159932000Y-71374000D02*
X165316002Y-71374000D01*
X193693999Y-70720001D02*
X194818000Y-69596000D01*
X158586000Y-72720000D02*
X159932000Y-71374000D01*
X165316002Y-71374000D02*
X165970001Y-70720001D01*
%TO.N,Net-(LED31-Pad2)*%
X224935999Y-70720001D02*
X226060000Y-69596000D01*
X191174000Y-71374000D02*
X196558002Y-71374000D01*
X196558002Y-71374000D02*
X197212001Y-70720001D01*
X197212001Y-70720001D02*
X224935999Y-70720001D01*
X189828000Y-72720000D02*
X191174000Y-71374000D01*
D20*
%TO.N,GND*%
X163558572Y-51989072D02*
X163682001Y-52112501D01*
X132481999Y-52112501D02*
X100985999Y-52112501D01*
X101147144Y-51951356D02*
X100985999Y-52112501D01*
X8742001Y-52112501D02*
X7620000Y-50990500D01*
X100985999Y-52112501D02*
X69997999Y-52112501D01*
X101147144Y-50812500D02*
X101147144Y-51951356D01*
X194764286Y-52060214D02*
X194711999Y-52112501D01*
X163558572Y-50812500D02*
X163558572Y-51989072D01*
X69941430Y-52055932D02*
X69997999Y-52112501D01*
X38735716Y-50812500D02*
X38735716Y-52092218D01*
X163682001Y-52112501D02*
X132481999Y-52112501D01*
X69941430Y-50812500D02*
X69941430Y-52055932D01*
X69997999Y-52112501D02*
X38755999Y-52112501D01*
X194711999Y-52112501D02*
X163682001Y-52112501D01*
X225970000Y-50812500D02*
X225970000Y-50826500D01*
X132352858Y-51983360D02*
X132481999Y-52112501D01*
X225970000Y-50826500D02*
X224683999Y-52112501D01*
X194764286Y-50812500D02*
X194764286Y-52060214D01*
X38735716Y-52092218D02*
X38755999Y-52112501D01*
X132352858Y-50812500D02*
X132352858Y-51983360D01*
%TO.N,+5V*%
X2630000Y-47612500D02*
X2630000Y-47598500D01*
X65041428Y-47612500D02*
X65041428Y-46435928D01*
X96247142Y-47612500D02*
X96247142Y-46441640D01*
X189864284Y-47612500D02*
X189864284Y-46332782D01*
X127452856Y-47612500D02*
X127452856Y-46473644D01*
X33835714Y-46364786D02*
X33888001Y-46312499D01*
X33835714Y-47612500D02*
X33835714Y-46364786D01*
X158658570Y-47612500D02*
X158658570Y-46369068D01*
D19*
%TO.N,Net-(LED17-Pad2)*%
X9360002Y-49466500D02*
X10014001Y-48812501D01*
X3976000Y-49466500D02*
X9360002Y-49466500D01*
X10014001Y-48812501D02*
X37737999Y-48812501D01*
X37737999Y-48812501D02*
X38862000Y-47688500D01*
X2630000Y-50812500D02*
X3976000Y-49466500D01*
%TO.N,Net-(LED18-Pad2)*%
X40602002Y-49466500D02*
X41256001Y-48812501D01*
X41256001Y-48812501D02*
X68979999Y-48812501D01*
X33872000Y-50812500D02*
X35218000Y-49466500D01*
X35218000Y-49466500D02*
X40602002Y-49466500D01*
X68979999Y-48812501D02*
X70104000Y-47688500D01*
%TO.N,Net-(LED19-Pad2)*%
X71844002Y-49466500D02*
X72498001Y-48812501D01*
X66460000Y-49466500D02*
X71844002Y-49466500D01*
X72498001Y-48812501D02*
X100221999Y-48812501D01*
X100221999Y-48812501D02*
X101346000Y-47688500D01*
X65114000Y-50812500D02*
X66460000Y-49466500D01*
%TO.N,Net-(LED20-Pad2)*%
X97448000Y-49466500D02*
X102832002Y-49466500D01*
X103486001Y-48812501D02*
X131209999Y-48812501D01*
X131209999Y-48812501D02*
X132334000Y-47688500D01*
X96102000Y-50812500D02*
X97448000Y-49466500D01*
X102832002Y-49466500D02*
X103486001Y-48812501D01*
%TO.N,Net-(LED21-Pad2)*%
X162451999Y-48812501D02*
X163576000Y-47688500D01*
X128690000Y-49466500D02*
X134074002Y-49466500D01*
X127344000Y-50812500D02*
X128690000Y-49466500D01*
X134074002Y-49466500D02*
X134728001Y-48812501D01*
X134728001Y-48812501D02*
X162451999Y-48812501D01*
%TO.N,Net-(LED22-Pad2)*%
X165970001Y-48812501D02*
X193693999Y-48812501D01*
X159932000Y-49466500D02*
X165316002Y-49466500D01*
X193693999Y-48812501D02*
X194818000Y-47688500D01*
X158586000Y-50812500D02*
X159932000Y-49466500D01*
X165316002Y-49466500D02*
X165970001Y-48812501D01*
%TO.N,Net-(LED23-Pad2)*%
X224935999Y-48812501D02*
X226060000Y-47688500D01*
X191174000Y-49466500D02*
X196558002Y-49466500D01*
X196558002Y-49466500D02*
X197212001Y-48812501D01*
X197212001Y-48812501D02*
X224935999Y-48812501D01*
X189828000Y-50812500D02*
X191174000Y-49466500D01*
D20*
%TO.N,GND*%
X163558572Y-29446572D02*
X163682001Y-29570001D01*
X132481999Y-29570001D02*
X100985999Y-29570001D01*
X101147144Y-29408856D02*
X100985999Y-29570001D01*
X8742001Y-29570001D02*
X7620000Y-28448000D01*
X100985999Y-29570001D02*
X69997999Y-29570001D01*
X101147144Y-28270000D02*
X101147144Y-29408856D01*
X194764286Y-29517714D02*
X194711999Y-29570001D01*
X163558572Y-28270000D02*
X163558572Y-29446572D01*
X69941430Y-29513432D02*
X69997999Y-29570001D01*
X38735716Y-28270000D02*
X38735716Y-29549718D01*
X38755999Y-29570001D02*
X8742001Y-29570001D01*
X224683999Y-29570001D02*
X194711999Y-29570001D01*
X163682001Y-29570001D02*
X132481999Y-29570001D01*
X69941430Y-28270000D02*
X69941430Y-29513432D01*
X69997999Y-29570001D02*
X38755999Y-29570001D01*
X194711999Y-29570001D02*
X163682001Y-29570001D01*
X225970000Y-28270000D02*
X225970000Y-28284000D01*
X132352858Y-29440860D02*
X132481999Y-29570001D01*
X225970000Y-28284000D02*
X224683999Y-29570001D01*
X194764286Y-28270000D02*
X194764286Y-29517714D01*
X38735716Y-29549718D02*
X38755999Y-29570001D01*
X132352858Y-28270000D02*
X132352858Y-29440860D01*
%TO.N,+5V*%
X2630000Y-25070000D02*
X2630000Y-25056000D01*
X64917999Y-23769999D02*
X96118001Y-23769999D01*
X65041428Y-23893428D02*
X64917999Y-23769999D01*
X65041428Y-25070000D02*
X65041428Y-23893428D01*
X96247142Y-23899140D02*
X96118001Y-23769999D01*
X189864284Y-23790282D02*
X189844001Y-23769999D01*
X2630000Y-25056000D02*
X3916001Y-23769999D01*
X189844001Y-23769999D02*
X219857999Y-23769999D01*
X219857999Y-23769999D02*
X220980000Y-24892000D01*
X96247142Y-25070000D02*
X96247142Y-23899140D01*
X189864284Y-25070000D02*
X189864284Y-23790282D01*
X96118001Y-23769999D02*
X127614001Y-23769999D01*
X127614001Y-23769999D02*
X158602001Y-23769999D01*
X127452856Y-25070000D02*
X127452856Y-23931144D01*
X127452856Y-23931144D02*
X127614001Y-23769999D01*
X33835714Y-23822286D02*
X33888001Y-23769999D01*
X33835714Y-25070000D02*
X33835714Y-23822286D01*
X3916001Y-23769999D02*
X33888001Y-23769999D01*
X33888001Y-23769999D02*
X64917999Y-23769999D01*
X158658570Y-23826568D02*
X158602001Y-23769999D01*
X158602001Y-23769999D02*
X189844001Y-23769999D01*
X158658570Y-25070000D02*
X158658570Y-23826568D01*
D19*
%TO.N,Net-(LED10-Pad4)*%
X9360002Y-26924000D02*
X10014001Y-26270001D01*
X3976000Y-26924000D02*
X9360002Y-26924000D01*
X10014001Y-26270001D02*
X37737999Y-26270001D01*
X37737999Y-26270001D02*
X38862000Y-25146000D01*
X2630000Y-28270000D02*
X3976000Y-26924000D01*
%TO.N,Net-(LED10-Pad2)*%
X40602002Y-26924000D02*
X41256001Y-26270001D01*
X41256001Y-26270001D02*
X68979999Y-26270001D01*
X33872000Y-28270000D02*
X35218000Y-26924000D01*
X35218000Y-26924000D02*
X40602002Y-26924000D01*
X68979999Y-26270001D02*
X70104000Y-25146000D01*
%TO.N,Net-(LED11-Pad2)*%
X71844002Y-26924000D02*
X72498001Y-26270001D01*
X66460000Y-26924000D02*
X71844002Y-26924000D01*
X72498001Y-26270001D02*
X100221999Y-26270001D01*
X100221999Y-26270001D02*
X101346000Y-25146000D01*
X65114000Y-28270000D02*
X66460000Y-26924000D01*
%TO.N,Net-(LED12-Pad2)*%
X97448000Y-26924000D02*
X102832002Y-26924000D01*
X103486001Y-26270001D02*
X131209999Y-26270001D01*
X131209999Y-26270001D02*
X132334000Y-25146000D01*
X96102000Y-28270000D02*
X97448000Y-26924000D01*
X102832002Y-26924000D02*
X103486001Y-26270001D01*
%TO.N,Net-(LED13-Pad2)*%
X162451999Y-26270001D02*
X163576000Y-25146000D01*
X128690000Y-26924000D02*
X134074002Y-26924000D01*
X127344000Y-28270000D02*
X128690000Y-26924000D01*
X134074002Y-26924000D02*
X134728001Y-26270001D01*
X134728001Y-26270001D02*
X162451999Y-26270001D01*
%TO.N,Net-(LED14-Pad2)*%
X165970001Y-26270001D02*
X193693999Y-26270001D01*
X159932000Y-26924000D02*
X165316002Y-26924000D01*
X193693999Y-26270001D02*
X194818000Y-25146000D01*
X158586000Y-28270000D02*
X159932000Y-26924000D01*
X165316002Y-26924000D02*
X165970001Y-26270001D01*
%TO.N,Net-(LED15-Pad2)*%
X224935999Y-26270001D02*
X226060000Y-25146000D01*
X191174000Y-26924000D02*
X196558002Y-26924000D01*
X196558002Y-26924000D02*
X197212001Y-26270001D01*
X197212001Y-26270001D02*
X224935999Y-26270001D01*
X189828000Y-28270000D02*
X191174000Y-26924000D01*
D20*
%TO.N,GND*%
X225970000Y-6680000D02*
X225970000Y-6694000D01*
X163682001Y-7980001D02*
X132481999Y-7980001D01*
X163558572Y-7856572D02*
X163682001Y-7980001D01*
X163558572Y-6680000D02*
X163558572Y-7856572D01*
X132352858Y-7850860D02*
X132481999Y-7980001D01*
X38735716Y-7959718D02*
X38755999Y-7980001D01*
X225970000Y-6694000D02*
X224683999Y-7980001D01*
X38755999Y-7980001D02*
X8742001Y-7980001D01*
X8742001Y-7980001D02*
X7620000Y-6858000D01*
X132352858Y-6680000D02*
X132352858Y-7850860D01*
X38735716Y-6680000D02*
X38735716Y-7959718D01*
X132481999Y-7980001D02*
X100985999Y-7980001D01*
X100985999Y-7980001D02*
X69997999Y-7980001D01*
X101147144Y-6680000D02*
X101147144Y-7818856D01*
X101147144Y-7818856D02*
X100985999Y-7980001D01*
X194764286Y-7927714D02*
X194711999Y-7980001D01*
X194764286Y-6680000D02*
X194764286Y-7927714D01*
X224683999Y-7980001D02*
X194711999Y-7980001D01*
X194711999Y-7980001D02*
X163682001Y-7980001D01*
X69941430Y-7923432D02*
X69997999Y-7980001D01*
X69997999Y-7980001D02*
X38755999Y-7980001D01*
X69941430Y-6680000D02*
X69941430Y-7923432D01*
X227520001Y-71169999D02*
X227520001Y-52260001D01*
X225970000Y-72720000D02*
X227520001Y-71169999D01*
X227520001Y-52260001D02*
X226060000Y-50800000D01*
X227520001Y-52260001D02*
X227520001Y-29654001D01*
X227520001Y-29654001D02*
X226060000Y-28194000D01*
X227520001Y-29654001D02*
X227520001Y-8064001D01*
X25400000Y-52155002D02*
X25357499Y-52112501D01*
X26416000Y-60960000D02*
X26416000Y-52155002D01*
X25357499Y-52112501D02*
X8742001Y-52112501D01*
X38755999Y-52112501D02*
X25357499Y-52112501D01*
X213360000Y-52155002D02*
X213317499Y-52112501D01*
X212598000Y-60960000D02*
X212598000Y-52155002D01*
X213317499Y-52112501D02*
X194711999Y-52112501D01*
X224683999Y-52112501D02*
X213317499Y-52112501D01*
X227372501Y-52112501D02*
X227520001Y-52260001D01*
X224683999Y-52112501D02*
X227372501Y-52112501D01*
X227520001Y-8064001D02*
X226060000Y-6604000D01*
X227436001Y-29570001D02*
X227520001Y-29654001D01*
X224683999Y-29570001D02*
X227436001Y-29570001D01*
X227436001Y-7980001D02*
X227520001Y-8064001D01*
X224683999Y-7980001D02*
X227436001Y-7980001D01*
D19*
%TO.N,/D_IN*%
X7542001Y-3379999D02*
X9475999Y-3379999D01*
D20*
%TO.N,+5V*%
X2630000Y-3480000D02*
X2630000Y-3466000D01*
X2630000Y-3466000D02*
X3916001Y-2179999D01*
X219857999Y-2179999D02*
X220980000Y-3302000D01*
X189864284Y-2200282D02*
X189844001Y-2179999D01*
X189864284Y-3480000D02*
X189864284Y-2200282D01*
X189844001Y-2179999D02*
X219857999Y-2179999D01*
X158658570Y-2236568D02*
X158602001Y-2179999D01*
X158602001Y-2179999D02*
X189844001Y-2179999D01*
X158658570Y-3480000D02*
X158658570Y-2236568D01*
X127452856Y-2341144D02*
X127614001Y-2179999D01*
X127452856Y-3480000D02*
X127452856Y-2341144D01*
X127614001Y-2179999D02*
X158602001Y-2179999D01*
X96247142Y-2309140D02*
X96118001Y-2179999D01*
X96247142Y-3480000D02*
X96247142Y-2309140D01*
X96118001Y-2179999D02*
X127614001Y-2179999D01*
X65041428Y-2303428D02*
X64917999Y-2179999D01*
X65041428Y-3480000D02*
X65041428Y-2303428D01*
X64917999Y-2179999D02*
X96118001Y-2179999D01*
X33835714Y-2232286D02*
X33888001Y-2179999D01*
X33888001Y-2179999D02*
X64917999Y-2179999D01*
X33835714Y-3480000D02*
X33835714Y-2232286D01*
X3916001Y-2179999D02*
X33888001Y-2179999D01*
X4439999Y-46206665D02*
X219942665Y-46206665D01*
X219942665Y-46206665D02*
X221107000Y-47371000D01*
X4439999Y-46206665D02*
X3894835Y-46206665D01*
X3894835Y-46206665D02*
X2603500Y-47498000D01*
X1079999Y-67969999D02*
X1079999Y-48958001D01*
X2630000Y-69520000D02*
X1079999Y-67969999D01*
X1079999Y-48958001D02*
X2540000Y-47498000D01*
X1079999Y-48958001D02*
X1079999Y-26606001D01*
X1079999Y-26606001D02*
X2540000Y-25146000D01*
X1079999Y-26606001D02*
X1079999Y-5016001D01*
X1079999Y-5016001D02*
X2540000Y-3556000D01*
X15240000Y-68113998D02*
X15133999Y-68219999D01*
X16256000Y-60960000D02*
X16256000Y-68113998D01*
X15133999Y-68219999D02*
X33888001Y-68219999D01*
X3916001Y-68219999D02*
X15133999Y-68219999D01*
X202438000Y-60960000D02*
X202438000Y-68072000D01*
X203347999Y-68219999D02*
X219857999Y-68219999D01*
X189844001Y-68219999D02*
X203347999Y-68219999D01*
X1329999Y-68219999D02*
X1079999Y-67969999D01*
X3916001Y-68219999D02*
X1329999Y-68219999D01*
D19*
%TO.N,/D_OUT*%
X216154000Y-72644000D02*
X220980000Y-72644000D01*
%TO.N,Net-(LED7-Pad2)*%
X196558002Y-5334000D02*
X197212001Y-4680001D01*
X191174000Y-5334000D02*
X196558002Y-5334000D01*
X197212001Y-4680001D02*
X224935999Y-4680001D01*
X224935999Y-4680001D02*
X226060000Y-3556000D01*
X189828000Y-6680000D02*
X191174000Y-5334000D01*
%TO.N,Net-(LED6-Pad2)*%
X165316002Y-5334000D02*
X165970001Y-4680001D01*
X159932000Y-5334000D02*
X165316002Y-5334000D01*
X165970001Y-4680001D02*
X193693999Y-4680001D01*
X193693999Y-4680001D02*
X194818000Y-3556000D01*
X158586000Y-6680000D02*
X159932000Y-5334000D01*
%TO.N,Net-(LED5-Pad2)*%
X134074002Y-5334000D02*
X134728001Y-4680001D01*
X128690000Y-5334000D02*
X134074002Y-5334000D01*
X134728001Y-4680001D02*
X162451999Y-4680001D01*
X162451999Y-4680001D02*
X163576000Y-3556000D01*
X127344000Y-6680000D02*
X128690000Y-5334000D01*
%TO.N,Net-(LED4-Pad2)*%
X102832002Y-5334000D02*
X103486001Y-4680001D01*
X97448000Y-5334000D02*
X102832002Y-5334000D01*
X103486001Y-4680001D02*
X131209999Y-4680001D01*
X131209999Y-4680001D02*
X132334000Y-3556000D01*
X96102000Y-6680000D02*
X97448000Y-5334000D01*
%TO.N,Net-(LED3-Pad2)*%
X71844002Y-5334000D02*
X72498001Y-4680001D01*
X66460000Y-5334000D02*
X71844002Y-5334000D01*
X72498001Y-4680001D02*
X100221999Y-4680001D01*
X100221999Y-4680001D02*
X101346000Y-3556000D01*
X65114000Y-6680000D02*
X66460000Y-5334000D01*
%TO.N,Net-(LED2-Pad2)*%
X40602002Y-5334000D02*
X41256001Y-4680001D01*
X35218000Y-5334000D02*
X40602002Y-5334000D01*
X41256001Y-4680001D02*
X68979999Y-4680001D01*
X68979999Y-4680001D02*
X70104000Y-3556000D01*
X33872000Y-6680000D02*
X35218000Y-5334000D01*
%TO.N,Net-(LED1-Pad2)*%
X37737999Y-4680001D02*
X38862000Y-3556000D01*
X9360002Y-5334000D02*
X10014001Y-4680001D01*
X3976000Y-5334000D02*
X9360002Y-5334000D01*
X10014001Y-4680001D02*
X37737999Y-4680001D01*
X2630000Y-6680000D02*
X3976000Y-5334000D01*
%TO.N,Net-(LED8-Pad2)*%
X214960000Y-6680000D02*
X214884000Y-6604000D01*
X221070000Y-6680000D02*
X214960000Y-6680000D01*
X7620000Y-25146000D02*
X12230010Y-25146000D01*
%TO.N,Net-(LED16-Pad2)*%
X221070000Y-28270000D02*
X214808000Y-28270000D01*
X7711335Y-47406665D02*
X7620000Y-47498000D01*
X10922000Y-47406665D02*
X7711335Y-47406665D01*
%TO.N,Net-(LED24-Pad2)*%
X215044666Y-50706666D02*
X214884000Y-50546000D01*
X221070000Y-50706666D02*
X215044666Y-50706666D01*
X12192000Y-69596000D02*
X7620000Y-69596000D01*
%TD*%
M02*
