%TF.GenerationSoftware,KiCad,Pcbnew,(5.1.10)-1*%
%TF.CreationDate,2021-06-03T19:49:57-05:00*%
%TF.ProjectId,step_led_panel,73746570-5f6c-4656-945f-70616e656c2e,rev?*%
%TF.SameCoordinates,Original*%
%TF.FileFunction,Paste,Top*%
%TF.FilePolarity,Positive*%
%FSLAX46Y46*%
G04 Gerber Fmt 4.6, Leading zero omitted, Abs format (unit mm)*
G04 Created by KiCad (PCBNEW (5.1.10)-1) date 2021-06-03 19:49:57*
%MOMM*%
%LPD*%
G01*
G04 APERTURE LIST*
%ADD10R,1.500000X1.000000*%
G04 APERTURE END LIST*
D10*
%TO.C,LED21*%
X127452856Y-47506666D03*
X127452856Y-50706666D03*
X132352856Y-47506666D03*
X132352856Y-50706666D03*
%TD*%
%TO.C,LED32*%
X221070000Y-69520000D03*
X221070000Y-72720000D03*
X225970000Y-69520000D03*
X225970000Y-72720000D03*
%TD*%
%TO.C,LED31*%
X189864284Y-69520000D03*
X189864284Y-72720000D03*
X194764284Y-69520000D03*
X194764284Y-72720000D03*
%TD*%
%TO.C,LED30*%
X158658570Y-69520000D03*
X158658570Y-72720000D03*
X163558570Y-69520000D03*
X163558570Y-72720000D03*
%TD*%
%TO.C,LED29*%
X127452856Y-69520000D03*
X127452856Y-72720000D03*
X132352856Y-69520000D03*
X132352856Y-72720000D03*
%TD*%
%TO.C,LED28*%
X96247142Y-69520000D03*
X96247142Y-72720000D03*
X101147142Y-69520000D03*
X101147142Y-72720000D03*
%TD*%
%TO.C,LED27*%
X65041428Y-69520000D03*
X65041428Y-72720000D03*
X69941428Y-69520000D03*
X69941428Y-72720000D03*
%TD*%
%TO.C,LED26*%
X33835714Y-69520000D03*
X33835714Y-72720000D03*
X38735714Y-69520000D03*
X38735714Y-72720000D03*
%TD*%
%TO.C,LED25*%
X2630000Y-69520000D03*
X2630000Y-72720000D03*
X7530000Y-69520000D03*
X7530000Y-72720000D03*
%TD*%
%TO.C,LED24*%
X221070000Y-47506666D03*
X221070000Y-50706666D03*
X225970000Y-47506666D03*
X225970000Y-50706666D03*
%TD*%
%TO.C,LED23*%
X189864284Y-47506666D03*
X189864284Y-50706666D03*
X194764284Y-47506666D03*
X194764284Y-50706666D03*
%TD*%
%TO.C,LED22*%
X158658570Y-47506666D03*
X158658570Y-50706666D03*
X163558570Y-47506666D03*
X163558570Y-50706666D03*
%TD*%
%TO.C,LED20*%
X96247142Y-47506666D03*
X96247142Y-50706666D03*
X101147142Y-47506666D03*
X101147142Y-50706666D03*
%TD*%
%TO.C,LED19*%
X65041428Y-47506666D03*
X65041428Y-50706666D03*
X69941428Y-47506666D03*
X69941428Y-50706666D03*
%TD*%
%TO.C,LED18*%
X33835714Y-47506666D03*
X33835714Y-50706666D03*
X38735714Y-47506666D03*
X38735714Y-50706666D03*
%TD*%
%TO.C,LED17*%
X2630000Y-47506666D03*
X2630000Y-50706666D03*
X7530000Y-47506666D03*
X7530000Y-50706666D03*
%TD*%
%TO.C,LED16*%
X221070000Y-25070000D03*
X221070000Y-28270000D03*
X225970000Y-25070000D03*
X225970000Y-28270000D03*
%TD*%
%TO.C,LED15*%
X189798572Y-25070000D03*
X189798572Y-28270000D03*
X194698572Y-25070000D03*
X194698572Y-28270000D03*
%TD*%
%TO.C,LED14*%
X158527144Y-25070000D03*
X158527144Y-28270000D03*
X163427144Y-25070000D03*
X163427144Y-28270000D03*
%TD*%
%TO.C,LED13*%
X127255716Y-25070000D03*
X127255716Y-28270000D03*
X132155716Y-25070000D03*
X132155716Y-28270000D03*
%TD*%
%TO.C,LED12*%
X95984288Y-25070000D03*
X95984288Y-28270000D03*
X100884288Y-25070000D03*
X100884288Y-28270000D03*
%TD*%
%TO.C,LED11*%
X64712860Y-25070000D03*
X64712860Y-28270000D03*
X69612860Y-25070000D03*
X69612860Y-28270000D03*
%TD*%
%TO.C,LED10*%
X33441432Y-25070000D03*
X33441432Y-28270000D03*
X38341432Y-25070000D03*
X38341432Y-28270000D03*
%TD*%
%TO.C,LED9*%
X2630000Y-25070000D03*
X2630000Y-28270000D03*
X7530000Y-25070000D03*
X7530000Y-28270000D03*
%TD*%
%TO.C,LED8*%
X221070000Y-3480000D03*
X221070000Y-6680000D03*
X225970000Y-3480000D03*
X225970000Y-6680000D03*
%TD*%
%TO.C,LED7*%
X189864284Y-3480000D03*
X189864284Y-6680000D03*
X194764284Y-3480000D03*
X194764284Y-6680000D03*
%TD*%
%TO.C,LED6*%
X158658570Y-3480000D03*
X158658570Y-6680000D03*
X163558570Y-3480000D03*
X163558570Y-6680000D03*
%TD*%
%TO.C,LED5*%
X127452856Y-3480000D03*
X127452856Y-6680000D03*
X132352856Y-3480000D03*
X132352856Y-6680000D03*
%TD*%
%TO.C,LED4*%
X96247142Y-3480000D03*
X96247142Y-6680000D03*
X101147142Y-3480000D03*
X101147142Y-6680000D03*
%TD*%
%TO.C,LED3*%
X65041428Y-3480000D03*
X65041428Y-6680000D03*
X69941428Y-3480000D03*
X69941428Y-6680000D03*
%TD*%
%TO.C,LED2*%
X33835714Y-3480000D03*
X33835714Y-6680000D03*
X38735714Y-3480000D03*
X38735714Y-6680000D03*
%TD*%
%TO.C,LED1*%
X2630000Y-3480000D03*
X2630000Y-6680000D03*
X7530000Y-3480000D03*
X7530000Y-6680000D03*
%TD*%
M02*
