%TF.GenerationSoftware,KiCad,Pcbnew,(5.1.10)-1*%
%TF.CreationDate,2021-06-03T19:49:57-05:00*%
%TF.ProjectId,step_led_panel,73746570-5f6c-4656-945f-70616e656c2e,rev?*%
%TF.SameCoordinates,Original*%
%TF.FileFunction,Legend,Top*%
%TF.FilePolarity,Positive*%
%FSLAX46Y46*%
G04 Gerber Fmt 4.6, Leading zero omitted, Abs format (unit mm)*
G04 Created by KiCad (PCBNEW (5.1.10)-1) date 2021-06-03 19:49:57*
%MOMM*%
%LPD*%
G01*
G04 APERTURE LIST*
%ADD10C,0.120000*%
%ADD11C,0.203200*%
%ADD12C,0.190500*%
%ADD13C,0.150000*%
G04 APERTURE END LIST*
D10*
X116798000Y-75177000D02*
X116798000Y-66287000D01*
D11*
X114191142Y-72657062D02*
X114191142Y-73165062D01*
X114989428Y-73165062D02*
X113465428Y-73165062D01*
X113465428Y-72439348D01*
X114916857Y-71931348D02*
X114989428Y-71713634D01*
X114989428Y-71350777D01*
X114916857Y-71205634D01*
X114844285Y-71133062D01*
X114699142Y-71060491D01*
X114554000Y-71060491D01*
X114408857Y-71133062D01*
X114336285Y-71205634D01*
X114263714Y-71350777D01*
X114191142Y-71641062D01*
X114118571Y-71786205D01*
X114046000Y-71858777D01*
X113900857Y-71931348D01*
X113755714Y-71931348D01*
X113610571Y-71858777D01*
X113538000Y-71786205D01*
X113465428Y-71641062D01*
X113465428Y-71278205D01*
X113538000Y-71060491D01*
X114989428Y-69536491D02*
X114263714Y-70044491D01*
X114989428Y-70407348D02*
X113465428Y-70407348D01*
X113465428Y-69826777D01*
X113538000Y-69681634D01*
X113610571Y-69609062D01*
X113755714Y-69536491D01*
X113973428Y-69536491D01*
X114118571Y-69609062D01*
X114191142Y-69681634D01*
X114263714Y-69826777D01*
X114263714Y-70407348D01*
D10*
X106638000Y-75177000D02*
X116798000Y-75177000D01*
X111718000Y-75177000D02*
X111718000Y-66287000D01*
X106638000Y-66287000D02*
X106638000Y-75177000D01*
D11*
X109111142Y-72657062D02*
X109111142Y-73165062D01*
X109909428Y-73165062D02*
X108385428Y-73165062D01*
X108385428Y-72439348D01*
X109836857Y-71931348D02*
X109909428Y-71713634D01*
X109909428Y-71350777D01*
X109836857Y-71205634D01*
X109764285Y-71133062D01*
X109619142Y-71060491D01*
X109474000Y-71060491D01*
X109328857Y-71133062D01*
X109256285Y-71205634D01*
X109183714Y-71350777D01*
X109111142Y-71641062D01*
X109038571Y-71786205D01*
X108966000Y-71858777D01*
X108820857Y-71931348D01*
X108675714Y-71931348D01*
X108530571Y-71858777D01*
X108458000Y-71786205D01*
X108385428Y-71641062D01*
X108385428Y-71278205D01*
X108458000Y-71060491D01*
X109909428Y-69536491D02*
X109183714Y-70044491D01*
X109909428Y-70407348D02*
X108385428Y-70407348D01*
X108385428Y-69826777D01*
X108458000Y-69681634D01*
X108530571Y-69609062D01*
X108675714Y-69536491D01*
X108893428Y-69536491D01*
X109038571Y-69609062D01*
X109111142Y-69681634D01*
X109183714Y-69826777D01*
X109183714Y-70407348D01*
D10*
X199856000Y-74923000D02*
X215096000Y-74923000D01*
X204936000Y-74923000D02*
X204936000Y-66033000D01*
X210016000Y-74923000D02*
X210016000Y-66033000D01*
X215096000Y-74923000D02*
X215096000Y-66033000D01*
X199856000Y-66033000D02*
X199856000Y-74923000D01*
D11*
X211836000Y-72112777D02*
X211763428Y-72257920D01*
X211763428Y-72475634D01*
X211836000Y-72693348D01*
X211981142Y-72838491D01*
X212126285Y-72911062D01*
X212416571Y-72983634D01*
X212634285Y-72983634D01*
X212924571Y-72911062D01*
X213069714Y-72838491D01*
X213214857Y-72693348D01*
X213287428Y-72475634D01*
X213287428Y-72330491D01*
X213214857Y-72112777D01*
X213142285Y-72040205D01*
X212634285Y-72040205D01*
X212634285Y-72330491D01*
X213287428Y-71387062D02*
X211763428Y-71387062D01*
X213287428Y-70516205D01*
X211763428Y-70516205D01*
X213287428Y-69790491D02*
X211763428Y-69790491D01*
X211763428Y-69427634D01*
X211836000Y-69209920D01*
X211981142Y-69064777D01*
X212126285Y-68992205D01*
X212416571Y-68919634D01*
X212634285Y-68919634D01*
X212924571Y-68992205D01*
X213069714Y-69064777D01*
X213214857Y-69209920D01*
X213287428Y-69427634D01*
X213287428Y-69790491D01*
D12*
X208207428Y-73070508D02*
X206683428Y-73070508D01*
X206683428Y-72858841D01*
X206756000Y-72731841D01*
X206901142Y-72647175D01*
X207046285Y-72604841D01*
X207336571Y-72562508D01*
X207554285Y-72562508D01*
X207844571Y-72604841D01*
X207989714Y-72647175D01*
X208134857Y-72731841D01*
X208207428Y-72858841D01*
X208207428Y-73070508D01*
X207772000Y-72223841D02*
X207772000Y-71800508D01*
X208207428Y-72308508D02*
X206683428Y-72012175D01*
X208207428Y-71715841D01*
X206683428Y-71546508D02*
X206683428Y-71038508D01*
X208207428Y-71292508D02*
X206683428Y-71292508D01*
X207772000Y-70784508D02*
X207772000Y-70361175D01*
X208207428Y-70869175D02*
X206683428Y-70572841D01*
X208207428Y-70276508D01*
X206683428Y-69133508D02*
X206683428Y-68964175D01*
X206756000Y-68879508D01*
X206901142Y-68794841D01*
X207191428Y-68752508D01*
X207699428Y-68752508D01*
X207989714Y-68794841D01*
X208134857Y-68879508D01*
X208207428Y-68964175D01*
X208207428Y-69133508D01*
X208134857Y-69218175D01*
X207989714Y-69302841D01*
X207699428Y-69345175D01*
X207191428Y-69345175D01*
X206901142Y-69302841D01*
X206756000Y-69218175D01*
X206683428Y-69133508D01*
X206683428Y-68371508D02*
X207917142Y-68371508D01*
X208062285Y-68329175D01*
X208134857Y-68286841D01*
X208207428Y-68202175D01*
X208207428Y-68032841D01*
X208134857Y-67948175D01*
X208062285Y-67905841D01*
X207917142Y-67863508D01*
X206683428Y-67863508D01*
X206683428Y-67567175D02*
X206683428Y-67059175D01*
X208207428Y-67313175D02*
X206683428Y-67313175D01*
D11*
X201603428Y-72185348D02*
X201603428Y-72911062D01*
X202329142Y-72983634D01*
X202256571Y-72911062D01*
X202184000Y-72765920D01*
X202184000Y-72403062D01*
X202256571Y-72257920D01*
X202329142Y-72185348D01*
X202474285Y-72112777D01*
X202837142Y-72112777D01*
X202982285Y-72185348D01*
X203054857Y-72257920D01*
X203127428Y-72403062D01*
X203127428Y-72765920D01*
X203054857Y-72911062D01*
X202982285Y-72983634D01*
X201603428Y-71677348D02*
X203127428Y-71169348D01*
X201603428Y-70661348D01*
D10*
X18796000Y-74930000D02*
X18796000Y-66040000D01*
X23876000Y-74930000D02*
X23876000Y-66040000D01*
X28956000Y-74930000D02*
X28956000Y-66040000D01*
X13716000Y-74930000D02*
X28956000Y-74930000D01*
X13716000Y-66040000D02*
X13716000Y-74930000D01*
D11*
X25654000Y-72366777D02*
X25581428Y-72511920D01*
X25581428Y-72729634D01*
X25654000Y-72947348D01*
X25799142Y-73092491D01*
X25944285Y-73165062D01*
X26234571Y-73237634D01*
X26452285Y-73237634D01*
X26742571Y-73165062D01*
X26887714Y-73092491D01*
X27032857Y-72947348D01*
X27105428Y-72729634D01*
X27105428Y-72584491D01*
X27032857Y-72366777D01*
X26960285Y-72294205D01*
X26452285Y-72294205D01*
X26452285Y-72584491D01*
X27105428Y-71641062D02*
X25581428Y-71641062D01*
X27105428Y-70770205D01*
X25581428Y-70770205D01*
X27105428Y-70044491D02*
X25581428Y-70044491D01*
X25581428Y-69681634D01*
X25654000Y-69463920D01*
X25799142Y-69318777D01*
X25944285Y-69246205D01*
X26234571Y-69173634D01*
X26452285Y-69173634D01*
X26742571Y-69246205D01*
X26887714Y-69318777D01*
X27032857Y-69463920D01*
X27105428Y-69681634D01*
X27105428Y-70044491D01*
D12*
X22025428Y-73324508D02*
X20501428Y-73324508D01*
X20501428Y-73112841D01*
X20574000Y-72985841D01*
X20719142Y-72901175D01*
X20864285Y-72858841D01*
X21154571Y-72816508D01*
X21372285Y-72816508D01*
X21662571Y-72858841D01*
X21807714Y-72901175D01*
X21952857Y-72985841D01*
X22025428Y-73112841D01*
X22025428Y-73324508D01*
X21590000Y-72477841D02*
X21590000Y-72054508D01*
X22025428Y-72562508D02*
X20501428Y-72266175D01*
X22025428Y-71969841D01*
X20501428Y-71800508D02*
X20501428Y-71292508D01*
X22025428Y-71546508D02*
X20501428Y-71546508D01*
X21590000Y-71038508D02*
X21590000Y-70615175D01*
X22025428Y-71123175D02*
X20501428Y-70826841D01*
X22025428Y-70530508D01*
X22025428Y-69556841D02*
X20501428Y-69556841D01*
X22025428Y-69133508D02*
X20501428Y-69133508D01*
X22025428Y-68625508D01*
X20501428Y-68625508D01*
D11*
X15421428Y-72439348D02*
X15421428Y-73165062D01*
X16147142Y-73237634D01*
X16074571Y-73165062D01*
X16002000Y-73019920D01*
X16002000Y-72657062D01*
X16074571Y-72511920D01*
X16147142Y-72439348D01*
X16292285Y-72366777D01*
X16655142Y-72366777D01*
X16800285Y-72439348D01*
X16872857Y-72511920D01*
X16945428Y-72657062D01*
X16945428Y-73019920D01*
X16872857Y-73165062D01*
X16800285Y-73237634D01*
X15421428Y-71931348D02*
X16945428Y-71423348D01*
X15421428Y-70915348D01*
D10*
%TO.C,FSR2*%
X119090000Y-62290000D02*
X119860000Y-62290000D01*
X121440000Y-62290000D02*
X122400000Y-62290000D01*
X123980000Y-62290000D02*
X124750000Y-62290000D01*
X119090000Y-56990000D02*
X124750000Y-56990000D01*
X119090000Y-56530000D02*
X124750000Y-56530000D01*
X119090000Y-62850000D02*
X119860000Y-62850000D01*
X121440000Y-62850000D02*
X122400000Y-62850000D01*
X123980000Y-62850000D02*
X124750000Y-62850000D01*
X119090000Y-56530000D02*
X119090000Y-62850000D01*
X124750000Y-56530000D02*
X124750000Y-62850000D01*
X118850000Y-62350000D02*
X118850000Y-63090000D01*
X118850000Y-63090000D02*
X119350000Y-63090000D01*
%TO.C,J3*%
X111400000Y-60452000D02*
G75*
G03*
X111400000Y-60452000I-2180000J0D01*
G01*
X116480000Y-60452000D02*
G75*
G03*
X116480000Y-60452000I-2180000J0D01*
G01*
X106620000Y-65252000D02*
X116900000Y-65252000D01*
X106620000Y-62752000D02*
X116900000Y-62752000D01*
X106620000Y-56552000D02*
X116900000Y-56552000D01*
X106620000Y-54492000D02*
X116900000Y-54492000D01*
X106620000Y-65812000D02*
X116900000Y-65812000D01*
X106620000Y-54492000D02*
X106620000Y-65812000D01*
X116900000Y-54492000D02*
X116900000Y-65812000D01*
X110874000Y-59064000D02*
X110767000Y-59171000D01*
X107938000Y-61999000D02*
X107832000Y-62106000D01*
X110608000Y-58798000D02*
X110501000Y-58905000D01*
X107672000Y-61733000D02*
X107566000Y-61840000D01*
X115954000Y-59064000D02*
X115559000Y-59460000D01*
X113293000Y-61726000D02*
X112913000Y-62106000D01*
X115688000Y-58798000D02*
X115308000Y-59178000D01*
X113042000Y-61444000D02*
X112647000Y-61840000D01*
X106380000Y-65312000D02*
X106380000Y-66052000D01*
X106380000Y-66052000D02*
X106880000Y-66052000D01*
%TO.C,FSR3*%
X174970000Y-62290000D02*
X175740000Y-62290000D01*
X177320000Y-62290000D02*
X178280000Y-62290000D01*
X179860000Y-62290000D02*
X180630000Y-62290000D01*
X174970000Y-56990000D02*
X180630000Y-56990000D01*
X174970000Y-56530000D02*
X180630000Y-56530000D01*
X174970000Y-62850000D02*
X175740000Y-62850000D01*
X177320000Y-62850000D02*
X178280000Y-62850000D01*
X179860000Y-62850000D02*
X180630000Y-62850000D01*
X174970000Y-56530000D02*
X174970000Y-62850000D01*
X180630000Y-56530000D02*
X180630000Y-62850000D01*
X174730000Y-62350000D02*
X174730000Y-63090000D01*
X174730000Y-63090000D02*
X175230000Y-63090000D01*
%TO.C,FSR1*%
X49240000Y-62290000D02*
X50010000Y-62290000D01*
X51590000Y-62290000D02*
X52550000Y-62290000D01*
X54130000Y-62290000D02*
X54900000Y-62290000D01*
X49240000Y-56990000D02*
X54900000Y-56990000D01*
X49240000Y-56530000D02*
X54900000Y-56530000D01*
X49240000Y-62850000D02*
X50010000Y-62850000D01*
X51590000Y-62850000D02*
X52550000Y-62850000D01*
X54130000Y-62850000D02*
X54900000Y-62850000D01*
X49240000Y-56530000D02*
X49240000Y-62850000D01*
X54900000Y-56530000D02*
X54900000Y-62850000D01*
X49000000Y-62350000D02*
X49000000Y-63090000D01*
X49000000Y-63090000D02*
X49500000Y-63090000D01*
%TO.C,LED21*%
X126252856Y-46356666D02*
X133552856Y-46356666D01*
X126252856Y-51856666D02*
X133552856Y-51856666D01*
X133552856Y-51856666D02*
X133552856Y-50706666D01*
%TO.C,LED32*%
X219870000Y-68370000D02*
X227170000Y-68370000D01*
X219870000Y-73870000D02*
X227170000Y-73870000D01*
X227170000Y-73870000D02*
X227170000Y-72720000D01*
%TO.C,LED31*%
X188664284Y-68370000D02*
X195964284Y-68370000D01*
X188664284Y-73870000D02*
X195964284Y-73870000D01*
X195964284Y-73870000D02*
X195964284Y-72720000D01*
%TO.C,LED30*%
X157458570Y-68370000D02*
X164758570Y-68370000D01*
X157458570Y-73870000D02*
X164758570Y-73870000D01*
X164758570Y-73870000D02*
X164758570Y-72720000D01*
%TO.C,LED29*%
X126252856Y-68370000D02*
X133552856Y-68370000D01*
X126252856Y-73870000D02*
X133552856Y-73870000D01*
X133552856Y-73870000D02*
X133552856Y-72720000D01*
%TO.C,LED28*%
X95047142Y-68370000D02*
X102347142Y-68370000D01*
X95047142Y-73870000D02*
X102347142Y-73870000D01*
X102347142Y-73870000D02*
X102347142Y-72720000D01*
%TO.C,LED27*%
X63841428Y-68370000D02*
X71141428Y-68370000D01*
X63841428Y-73870000D02*
X71141428Y-73870000D01*
X71141428Y-73870000D02*
X71141428Y-72720000D01*
%TO.C,LED26*%
X32635714Y-68370000D02*
X39935714Y-68370000D01*
X32635714Y-73870000D02*
X39935714Y-73870000D01*
X39935714Y-73870000D02*
X39935714Y-72720000D01*
%TO.C,LED25*%
X1430000Y-68370000D02*
X8730000Y-68370000D01*
X1430000Y-73870000D02*
X8730000Y-73870000D01*
X8730000Y-73870000D02*
X8730000Y-72720000D01*
%TO.C,LED24*%
X219870000Y-46356666D02*
X227170000Y-46356666D01*
X219870000Y-51856666D02*
X227170000Y-51856666D01*
X227170000Y-51856666D02*
X227170000Y-50706666D01*
%TO.C,LED23*%
X188664284Y-46356666D02*
X195964284Y-46356666D01*
X188664284Y-51856666D02*
X195964284Y-51856666D01*
X195964284Y-51856666D02*
X195964284Y-50706666D01*
%TO.C,LED22*%
X157458570Y-46356666D02*
X164758570Y-46356666D01*
X157458570Y-51856666D02*
X164758570Y-51856666D01*
X164758570Y-51856666D02*
X164758570Y-50706666D01*
%TO.C,LED20*%
X95047142Y-46356666D02*
X102347142Y-46356666D01*
X95047142Y-51856666D02*
X102347142Y-51856666D01*
X102347142Y-51856666D02*
X102347142Y-50706666D01*
%TO.C,LED19*%
X63841428Y-46356666D02*
X71141428Y-46356666D01*
X63841428Y-51856666D02*
X71141428Y-51856666D01*
X71141428Y-51856666D02*
X71141428Y-50706666D01*
%TO.C,LED18*%
X32635714Y-46356666D02*
X39935714Y-46356666D01*
X32635714Y-51856666D02*
X39935714Y-51856666D01*
X39935714Y-51856666D02*
X39935714Y-50706666D01*
%TO.C,LED17*%
X1430000Y-46356666D02*
X8730000Y-46356666D01*
X1430000Y-51856666D02*
X8730000Y-51856666D01*
X8730000Y-51856666D02*
X8730000Y-50706666D01*
%TO.C,LED16*%
X219870000Y-23920000D02*
X227170000Y-23920000D01*
X219870000Y-29420000D02*
X227170000Y-29420000D01*
X227170000Y-29420000D02*
X227170000Y-28270000D01*
%TO.C,LED15*%
X188598572Y-23920000D02*
X195898572Y-23920000D01*
X188598572Y-29420000D02*
X195898572Y-29420000D01*
X195898572Y-29420000D02*
X195898572Y-28270000D01*
%TO.C,LED14*%
X157327144Y-23920000D02*
X164627144Y-23920000D01*
X157327144Y-29420000D02*
X164627144Y-29420000D01*
X164627144Y-29420000D02*
X164627144Y-28270000D01*
%TO.C,LED13*%
X126055716Y-23920000D02*
X133355716Y-23920000D01*
X126055716Y-29420000D02*
X133355716Y-29420000D01*
X133355716Y-29420000D02*
X133355716Y-28270000D01*
%TO.C,LED12*%
X94784288Y-23920000D02*
X102084288Y-23920000D01*
X94784288Y-29420000D02*
X102084288Y-29420000D01*
X102084288Y-29420000D02*
X102084288Y-28270000D01*
%TO.C,LED11*%
X63512860Y-23920000D02*
X70812860Y-23920000D01*
X63512860Y-29420000D02*
X70812860Y-29420000D01*
X70812860Y-29420000D02*
X70812860Y-28270000D01*
%TO.C,LED10*%
X32241432Y-23920000D02*
X39541432Y-23920000D01*
X32241432Y-29420000D02*
X39541432Y-29420000D01*
X39541432Y-29420000D02*
X39541432Y-28270000D01*
%TO.C,LED9*%
X1430000Y-23920000D02*
X8730000Y-23920000D01*
X1430000Y-29420000D02*
X8730000Y-29420000D01*
X8730000Y-29420000D02*
X8730000Y-28270000D01*
%TO.C,LED8*%
X219870000Y-2330000D02*
X227170000Y-2330000D01*
X219870000Y-7830000D02*
X227170000Y-7830000D01*
X227170000Y-7830000D02*
X227170000Y-6680000D01*
%TO.C,LED7*%
X188664284Y-2330000D02*
X195964284Y-2330000D01*
X188664284Y-7830000D02*
X195964284Y-7830000D01*
X195964284Y-7830000D02*
X195964284Y-6680000D01*
%TO.C,LED6*%
X157458570Y-2330000D02*
X164758570Y-2330000D01*
X157458570Y-7830000D02*
X164758570Y-7830000D01*
X164758570Y-7830000D02*
X164758570Y-6680000D01*
%TO.C,LED5*%
X126252856Y-2330000D02*
X133552856Y-2330000D01*
X126252856Y-7830000D02*
X133552856Y-7830000D01*
X133552856Y-7830000D02*
X133552856Y-6680000D01*
%TO.C,LED4*%
X95047142Y-2330000D02*
X102347142Y-2330000D01*
X95047142Y-7830000D02*
X102347142Y-7830000D01*
X102347142Y-7830000D02*
X102347142Y-6680000D01*
%TO.C,LED3*%
X63841428Y-2330000D02*
X71141428Y-2330000D01*
X63841428Y-7830000D02*
X71141428Y-7830000D01*
X71141428Y-7830000D02*
X71141428Y-6680000D01*
%TO.C,LED2*%
X32635714Y-2330000D02*
X39935714Y-2330000D01*
X32635714Y-7830000D02*
X39935714Y-7830000D01*
X39935714Y-7830000D02*
X39935714Y-6680000D01*
%TO.C,LED1*%
X1430000Y-2330000D02*
X8730000Y-2330000D01*
X1430000Y-7830000D02*
X8730000Y-7830000D01*
X8730000Y-7830000D02*
X8730000Y-6680000D01*
%TO.C,J2*%
X202466805Y-62640253D02*
G75*
G02*
X201754000Y-62495000I-28805J1680253D01*
G01*
X200902574Y-61643042D02*
G75*
G02*
X200903000Y-60276000I1535426J683042D01*
G01*
X201754958Y-59424574D02*
G75*
G02*
X203122000Y-59425000I683042J-1535426D01*
G01*
X203973426Y-60276958D02*
G75*
G02*
X203973000Y-61644000I-1535426J-683042D01*
G01*
X203121318Y-62494756D02*
G75*
G02*
X202438000Y-62640000I-683318J1534756D01*
G01*
X209198000Y-60960000D02*
G75*
G03*
X209198000Y-60960000I-1680000J0D01*
G01*
X214278000Y-60960000D02*
G75*
G03*
X214278000Y-60960000I-1680000J0D01*
G01*
X199838000Y-65060000D02*
X215198000Y-65060000D01*
X199838000Y-63560000D02*
X215198000Y-63560000D01*
X199838000Y-58659000D02*
X215198000Y-58659000D01*
X199838000Y-55699000D02*
X215198000Y-55699000D01*
X199838000Y-65620000D02*
X215198000Y-65620000D01*
X199838000Y-55699000D02*
X199838000Y-65620000D01*
X215198000Y-55699000D02*
X215198000Y-65620000D01*
X208793000Y-59891000D02*
X208746000Y-59937000D01*
X206484000Y-62199000D02*
X206449000Y-62234000D01*
X208588000Y-59685000D02*
X208553000Y-59721000D01*
X206291000Y-61983000D02*
X206244000Y-62029000D01*
X213873000Y-59891000D02*
X213826000Y-59937000D01*
X211564000Y-62199000D02*
X211529000Y-62234000D01*
X213668000Y-59685000D02*
X213633000Y-59721000D01*
X211371000Y-61983000D02*
X211324000Y-62029000D01*
X199598000Y-65120000D02*
X199598000Y-65860000D01*
X199598000Y-65860000D02*
X200098000Y-65860000D01*
%TO.C,J1*%
X16284805Y-62640253D02*
G75*
G02*
X15572000Y-62495000I-28805J1680253D01*
G01*
X14720574Y-61643042D02*
G75*
G02*
X14721000Y-60276000I1535426J683042D01*
G01*
X15572958Y-59424574D02*
G75*
G02*
X16940000Y-59425000I683042J-1535426D01*
G01*
X17791426Y-60276958D02*
G75*
G02*
X17791000Y-61644000I-1535426J-683042D01*
G01*
X16939318Y-62494756D02*
G75*
G02*
X16256000Y-62640000I-683318J1534756D01*
G01*
X23016000Y-60960000D02*
G75*
G03*
X23016000Y-60960000I-1680000J0D01*
G01*
X28096000Y-60960000D02*
G75*
G03*
X28096000Y-60960000I-1680000J0D01*
G01*
X13656000Y-65060000D02*
X29016000Y-65060000D01*
X13656000Y-63560000D02*
X29016000Y-63560000D01*
X13656000Y-58659000D02*
X29016000Y-58659000D01*
X13656000Y-55699000D02*
X29016000Y-55699000D01*
X13656000Y-65620000D02*
X29016000Y-65620000D01*
X13656000Y-55699000D02*
X13656000Y-65620000D01*
X29016000Y-55699000D02*
X29016000Y-65620000D01*
X22611000Y-59891000D02*
X22564000Y-59937000D01*
X20302000Y-62199000D02*
X20267000Y-62234000D01*
X22406000Y-59685000D02*
X22371000Y-59721000D01*
X20109000Y-61983000D02*
X20062000Y-62029000D01*
X27691000Y-59891000D02*
X27644000Y-59937000D01*
X25382000Y-62199000D02*
X25347000Y-62234000D01*
X27486000Y-59685000D02*
X27451000Y-59721000D01*
X25189000Y-61983000D02*
X25142000Y-62029000D01*
X13416000Y-65120000D02*
X13416000Y-65860000D01*
X13416000Y-65860000D02*
X13916000Y-65860000D01*
%TO.C,H8*%
D13*
X220218095Y-54542380D02*
X220218095Y-53542380D01*
X220218095Y-54018571D02*
X220789523Y-54018571D01*
X220789523Y-54542380D02*
X220789523Y-53542380D01*
X221408571Y-53970952D02*
X221313333Y-53923333D01*
X221265714Y-53875714D01*
X221218095Y-53780476D01*
X221218095Y-53732857D01*
X221265714Y-53637619D01*
X221313333Y-53590000D01*
X221408571Y-53542380D01*
X221599047Y-53542380D01*
X221694285Y-53590000D01*
X221741904Y-53637619D01*
X221789523Y-53732857D01*
X221789523Y-53780476D01*
X221741904Y-53875714D01*
X221694285Y-53923333D01*
X221599047Y-53970952D01*
X221408571Y-53970952D01*
X221313333Y-54018571D01*
X221265714Y-54066190D01*
X221218095Y-54161428D01*
X221218095Y-54351904D01*
X221265714Y-54447142D01*
X221313333Y-54494761D01*
X221408571Y-54542380D01*
X221599047Y-54542380D01*
X221694285Y-54494761D01*
X221741904Y-54447142D01*
X221789523Y-54351904D01*
X221789523Y-54161428D01*
X221741904Y-54066190D01*
X221694285Y-54018571D01*
X221599047Y-53970952D01*
%TO.C,H7*%
X220218095Y-10854380D02*
X220218095Y-9854380D01*
X220218095Y-10330571D02*
X220789523Y-10330571D01*
X220789523Y-10854380D02*
X220789523Y-9854380D01*
X221170476Y-9854380D02*
X221837142Y-9854380D01*
X221408571Y-10854380D01*
%TO.C,H6*%
X149098095Y-54542380D02*
X149098095Y-53542380D01*
X149098095Y-54018571D02*
X149669523Y-54018571D01*
X149669523Y-54542380D02*
X149669523Y-53542380D01*
X150574285Y-53542380D02*
X150383809Y-53542380D01*
X150288571Y-53590000D01*
X150240952Y-53637619D01*
X150145714Y-53780476D01*
X150098095Y-53970952D01*
X150098095Y-54351904D01*
X150145714Y-54447142D01*
X150193333Y-54494761D01*
X150288571Y-54542380D01*
X150479047Y-54542380D01*
X150574285Y-54494761D01*
X150621904Y-54447142D01*
X150669523Y-54351904D01*
X150669523Y-54113809D01*
X150621904Y-54018571D01*
X150574285Y-53970952D01*
X150479047Y-53923333D01*
X150288571Y-53923333D01*
X150193333Y-53970952D01*
X150145714Y-54018571D01*
X150098095Y-54113809D01*
%TO.C,H5*%
X149098095Y-10854380D02*
X149098095Y-9854380D01*
X149098095Y-10330571D02*
X149669523Y-10330571D01*
X149669523Y-10854380D02*
X149669523Y-9854380D01*
X150621904Y-9854380D02*
X150145714Y-9854380D01*
X150098095Y-10330571D01*
X150145714Y-10282952D01*
X150240952Y-10235333D01*
X150479047Y-10235333D01*
X150574285Y-10282952D01*
X150621904Y-10330571D01*
X150669523Y-10425809D01*
X150669523Y-10663904D01*
X150621904Y-10759142D01*
X150574285Y-10806761D01*
X150479047Y-10854380D01*
X150240952Y-10854380D01*
X150145714Y-10806761D01*
X150098095Y-10759142D01*
%TO.C,H4*%
X77978095Y-54542380D02*
X77978095Y-53542380D01*
X77978095Y-54018571D02*
X78549523Y-54018571D01*
X78549523Y-54542380D02*
X78549523Y-53542380D01*
X79454285Y-53875714D02*
X79454285Y-54542380D01*
X79216190Y-53494761D02*
X78978095Y-54209047D01*
X79597142Y-54209047D01*
%TO.C,H3*%
X77978095Y-10854380D02*
X77978095Y-9854380D01*
X77978095Y-10330571D02*
X78549523Y-10330571D01*
X78549523Y-10854380D02*
X78549523Y-9854380D01*
X78930476Y-9854380D02*
X79549523Y-9854380D01*
X79216190Y-10235333D01*
X79359047Y-10235333D01*
X79454285Y-10282952D01*
X79501904Y-10330571D01*
X79549523Y-10425809D01*
X79549523Y-10663904D01*
X79501904Y-10759142D01*
X79454285Y-10806761D01*
X79359047Y-10854380D01*
X79073333Y-10854380D01*
X78978095Y-10806761D01*
X78930476Y-10759142D01*
%TO.C,H2*%
X6858095Y-54542380D02*
X6858095Y-53542380D01*
X6858095Y-54018571D02*
X7429523Y-54018571D01*
X7429523Y-54542380D02*
X7429523Y-53542380D01*
X7858095Y-53637619D02*
X7905714Y-53590000D01*
X8000952Y-53542380D01*
X8239047Y-53542380D01*
X8334285Y-53590000D01*
X8381904Y-53637619D01*
X8429523Y-53732857D01*
X8429523Y-53828095D01*
X8381904Y-53970952D01*
X7810476Y-54542380D01*
X8429523Y-54542380D01*
%TO.C,H1*%
X6858095Y-10854380D02*
X6858095Y-9854380D01*
X6858095Y-10330571D02*
X7429523Y-10330571D01*
X7429523Y-10854380D02*
X7429523Y-9854380D01*
X8429523Y-10854380D02*
X7858095Y-10854380D01*
X8143809Y-10854380D02*
X8143809Y-9854380D01*
X8048571Y-9997238D01*
X7953333Y-10092476D01*
X7858095Y-10140095D01*
%TO.C,FSR2*%
X120610476Y-55458571D02*
X120277142Y-55458571D01*
X120277142Y-55982380D02*
X120277142Y-54982380D01*
X120753333Y-54982380D01*
X121086666Y-55934761D02*
X121229523Y-55982380D01*
X121467619Y-55982380D01*
X121562857Y-55934761D01*
X121610476Y-55887142D01*
X121658095Y-55791904D01*
X121658095Y-55696666D01*
X121610476Y-55601428D01*
X121562857Y-55553809D01*
X121467619Y-55506190D01*
X121277142Y-55458571D01*
X121181904Y-55410952D01*
X121134285Y-55363333D01*
X121086666Y-55268095D01*
X121086666Y-55172857D01*
X121134285Y-55077619D01*
X121181904Y-55030000D01*
X121277142Y-54982380D01*
X121515238Y-54982380D01*
X121658095Y-55030000D01*
X122658095Y-55982380D02*
X122324761Y-55506190D01*
X122086666Y-55982380D02*
X122086666Y-54982380D01*
X122467619Y-54982380D01*
X122562857Y-55030000D01*
X122610476Y-55077619D01*
X122658095Y-55172857D01*
X122658095Y-55315714D01*
X122610476Y-55410952D01*
X122562857Y-55458571D01*
X122467619Y-55506190D01*
X122086666Y-55506190D01*
X123039047Y-55077619D02*
X123086666Y-55030000D01*
X123181904Y-54982380D01*
X123420000Y-54982380D01*
X123515238Y-55030000D01*
X123562857Y-55077619D01*
X123610476Y-55172857D01*
X123610476Y-55268095D01*
X123562857Y-55410952D01*
X122991428Y-55982380D01*
X123610476Y-55982380D01*
%TO.C,J3*%
X111426666Y-52944380D02*
X111426666Y-53658666D01*
X111379047Y-53801523D01*
X111283809Y-53896761D01*
X111140952Y-53944380D01*
X111045714Y-53944380D01*
X111807619Y-52944380D02*
X112426666Y-52944380D01*
X112093333Y-53325333D01*
X112236190Y-53325333D01*
X112331428Y-53372952D01*
X112379047Y-53420571D01*
X112426666Y-53515809D01*
X112426666Y-53753904D01*
X112379047Y-53849142D01*
X112331428Y-53896761D01*
X112236190Y-53944380D01*
X111950476Y-53944380D01*
X111855238Y-53896761D01*
X111807619Y-53849142D01*
%TO.C,FSR3*%
X176490476Y-55458571D02*
X176157142Y-55458571D01*
X176157142Y-55982380D02*
X176157142Y-54982380D01*
X176633333Y-54982380D01*
X176966666Y-55934761D02*
X177109523Y-55982380D01*
X177347619Y-55982380D01*
X177442857Y-55934761D01*
X177490476Y-55887142D01*
X177538095Y-55791904D01*
X177538095Y-55696666D01*
X177490476Y-55601428D01*
X177442857Y-55553809D01*
X177347619Y-55506190D01*
X177157142Y-55458571D01*
X177061904Y-55410952D01*
X177014285Y-55363333D01*
X176966666Y-55268095D01*
X176966666Y-55172857D01*
X177014285Y-55077619D01*
X177061904Y-55030000D01*
X177157142Y-54982380D01*
X177395238Y-54982380D01*
X177538095Y-55030000D01*
X178538095Y-55982380D02*
X178204761Y-55506190D01*
X177966666Y-55982380D02*
X177966666Y-54982380D01*
X178347619Y-54982380D01*
X178442857Y-55030000D01*
X178490476Y-55077619D01*
X178538095Y-55172857D01*
X178538095Y-55315714D01*
X178490476Y-55410952D01*
X178442857Y-55458571D01*
X178347619Y-55506190D01*
X177966666Y-55506190D01*
X178871428Y-54982380D02*
X179490476Y-54982380D01*
X179157142Y-55363333D01*
X179300000Y-55363333D01*
X179395238Y-55410952D01*
X179442857Y-55458571D01*
X179490476Y-55553809D01*
X179490476Y-55791904D01*
X179442857Y-55887142D01*
X179395238Y-55934761D01*
X179300000Y-55982380D01*
X179014285Y-55982380D01*
X178919047Y-55934761D01*
X178871428Y-55887142D01*
%TO.C,FSR1*%
X50760476Y-55458571D02*
X50427142Y-55458571D01*
X50427142Y-55982380D02*
X50427142Y-54982380D01*
X50903333Y-54982380D01*
X51236666Y-55934761D02*
X51379523Y-55982380D01*
X51617619Y-55982380D01*
X51712857Y-55934761D01*
X51760476Y-55887142D01*
X51808095Y-55791904D01*
X51808095Y-55696666D01*
X51760476Y-55601428D01*
X51712857Y-55553809D01*
X51617619Y-55506190D01*
X51427142Y-55458571D01*
X51331904Y-55410952D01*
X51284285Y-55363333D01*
X51236666Y-55268095D01*
X51236666Y-55172857D01*
X51284285Y-55077619D01*
X51331904Y-55030000D01*
X51427142Y-54982380D01*
X51665238Y-54982380D01*
X51808095Y-55030000D01*
X52808095Y-55982380D02*
X52474761Y-55506190D01*
X52236666Y-55982380D02*
X52236666Y-54982380D01*
X52617619Y-54982380D01*
X52712857Y-55030000D01*
X52760476Y-55077619D01*
X52808095Y-55172857D01*
X52808095Y-55315714D01*
X52760476Y-55410952D01*
X52712857Y-55458571D01*
X52617619Y-55506190D01*
X52236666Y-55506190D01*
X53760476Y-55982380D02*
X53189047Y-55982380D01*
X53474761Y-55982380D02*
X53474761Y-54982380D01*
X53379523Y-55125238D01*
X53284285Y-55220476D01*
X53189047Y-55268095D01*
%TO.C,LED21*%
X128307617Y-46059046D02*
X127831427Y-46059046D01*
X127831427Y-45059046D01*
X128640951Y-45535237D02*
X128974284Y-45535237D01*
X129117141Y-46059046D02*
X128640951Y-46059046D01*
X128640951Y-45059046D01*
X129117141Y-45059046D01*
X129545713Y-46059046D02*
X129545713Y-45059046D01*
X129783808Y-45059046D01*
X129926665Y-45106666D01*
X130021903Y-45201904D01*
X130069522Y-45297142D01*
X130117141Y-45487618D01*
X130117141Y-45630475D01*
X130069522Y-45820951D01*
X130021903Y-45916189D01*
X129926665Y-46011427D01*
X129783808Y-46059046D01*
X129545713Y-46059046D01*
X130498094Y-45154285D02*
X130545713Y-45106666D01*
X130640951Y-45059046D01*
X130879046Y-45059046D01*
X130974284Y-45106666D01*
X131021903Y-45154285D01*
X131069522Y-45249523D01*
X131069522Y-45344761D01*
X131021903Y-45487618D01*
X130450475Y-46059046D01*
X131069522Y-46059046D01*
X132021903Y-46059046D02*
X131450475Y-46059046D01*
X131736189Y-46059046D02*
X131736189Y-45059046D01*
X131640951Y-45201904D01*
X131545713Y-45297142D01*
X131450475Y-45344761D01*
X126038570Y-47959046D02*
X125467141Y-47959046D01*
X125752856Y-47959046D02*
X125752856Y-46959046D01*
X125657617Y-47101904D01*
X125562379Y-47197142D01*
X125467141Y-47244761D01*
%TO.C,LED32*%
X221924761Y-68072380D02*
X221448571Y-68072380D01*
X221448571Y-67072380D01*
X222258095Y-67548571D02*
X222591428Y-67548571D01*
X222734285Y-68072380D02*
X222258095Y-68072380D01*
X222258095Y-67072380D01*
X222734285Y-67072380D01*
X223162857Y-68072380D02*
X223162857Y-67072380D01*
X223400952Y-67072380D01*
X223543809Y-67120000D01*
X223639047Y-67215238D01*
X223686666Y-67310476D01*
X223734285Y-67500952D01*
X223734285Y-67643809D01*
X223686666Y-67834285D01*
X223639047Y-67929523D01*
X223543809Y-68024761D01*
X223400952Y-68072380D01*
X223162857Y-68072380D01*
X224067619Y-67072380D02*
X224686666Y-67072380D01*
X224353333Y-67453333D01*
X224496190Y-67453333D01*
X224591428Y-67500952D01*
X224639047Y-67548571D01*
X224686666Y-67643809D01*
X224686666Y-67881904D01*
X224639047Y-67977142D01*
X224591428Y-68024761D01*
X224496190Y-68072380D01*
X224210476Y-68072380D01*
X224115238Y-68024761D01*
X224067619Y-67977142D01*
X225067619Y-67167619D02*
X225115238Y-67120000D01*
X225210476Y-67072380D01*
X225448571Y-67072380D01*
X225543809Y-67120000D01*
X225591428Y-67167619D01*
X225639047Y-67262857D01*
X225639047Y-67358095D01*
X225591428Y-67500952D01*
X225020000Y-68072380D01*
X225639047Y-68072380D01*
X219655714Y-69972380D02*
X219084285Y-69972380D01*
X219370000Y-69972380D02*
X219370000Y-68972380D01*
X219274761Y-69115238D01*
X219179523Y-69210476D01*
X219084285Y-69258095D01*
%TO.C,LED31*%
X190719045Y-68072380D02*
X190242855Y-68072380D01*
X190242855Y-67072380D01*
X191052379Y-67548571D02*
X191385712Y-67548571D01*
X191528569Y-68072380D02*
X191052379Y-68072380D01*
X191052379Y-67072380D01*
X191528569Y-67072380D01*
X191957141Y-68072380D02*
X191957141Y-67072380D01*
X192195236Y-67072380D01*
X192338093Y-67120000D01*
X192433331Y-67215238D01*
X192480950Y-67310476D01*
X192528569Y-67500952D01*
X192528569Y-67643809D01*
X192480950Y-67834285D01*
X192433331Y-67929523D01*
X192338093Y-68024761D01*
X192195236Y-68072380D01*
X191957141Y-68072380D01*
X192861903Y-67072380D02*
X193480950Y-67072380D01*
X193147617Y-67453333D01*
X193290474Y-67453333D01*
X193385712Y-67500952D01*
X193433331Y-67548571D01*
X193480950Y-67643809D01*
X193480950Y-67881904D01*
X193433331Y-67977142D01*
X193385712Y-68024761D01*
X193290474Y-68072380D01*
X193004760Y-68072380D01*
X192909522Y-68024761D01*
X192861903Y-67977142D01*
X194433331Y-68072380D02*
X193861903Y-68072380D01*
X194147617Y-68072380D02*
X194147617Y-67072380D01*
X194052379Y-67215238D01*
X193957141Y-67310476D01*
X193861903Y-67358095D01*
X188449998Y-69972380D02*
X187878569Y-69972380D01*
X188164284Y-69972380D02*
X188164284Y-68972380D01*
X188069045Y-69115238D01*
X187973807Y-69210476D01*
X187878569Y-69258095D01*
%TO.C,LED30*%
X159513331Y-68072380D02*
X159037141Y-68072380D01*
X159037141Y-67072380D01*
X159846665Y-67548571D02*
X160179998Y-67548571D01*
X160322855Y-68072380D02*
X159846665Y-68072380D01*
X159846665Y-67072380D01*
X160322855Y-67072380D01*
X160751427Y-68072380D02*
X160751427Y-67072380D01*
X160989522Y-67072380D01*
X161132379Y-67120000D01*
X161227617Y-67215238D01*
X161275236Y-67310476D01*
X161322855Y-67500952D01*
X161322855Y-67643809D01*
X161275236Y-67834285D01*
X161227617Y-67929523D01*
X161132379Y-68024761D01*
X160989522Y-68072380D01*
X160751427Y-68072380D01*
X161656189Y-67072380D02*
X162275236Y-67072380D01*
X161941903Y-67453333D01*
X162084760Y-67453333D01*
X162179998Y-67500952D01*
X162227617Y-67548571D01*
X162275236Y-67643809D01*
X162275236Y-67881904D01*
X162227617Y-67977142D01*
X162179998Y-68024761D01*
X162084760Y-68072380D01*
X161799046Y-68072380D01*
X161703808Y-68024761D01*
X161656189Y-67977142D01*
X162894284Y-67072380D02*
X162989522Y-67072380D01*
X163084760Y-67120000D01*
X163132379Y-67167619D01*
X163179998Y-67262857D01*
X163227617Y-67453333D01*
X163227617Y-67691428D01*
X163179998Y-67881904D01*
X163132379Y-67977142D01*
X163084760Y-68024761D01*
X162989522Y-68072380D01*
X162894284Y-68072380D01*
X162799046Y-68024761D01*
X162751427Y-67977142D01*
X162703808Y-67881904D01*
X162656189Y-67691428D01*
X162656189Y-67453333D01*
X162703808Y-67262857D01*
X162751427Y-67167619D01*
X162799046Y-67120000D01*
X162894284Y-67072380D01*
X157244284Y-69972380D02*
X156672855Y-69972380D01*
X156958570Y-69972380D02*
X156958570Y-68972380D01*
X156863331Y-69115238D01*
X156768093Y-69210476D01*
X156672855Y-69258095D01*
%TO.C,LED29*%
X128307617Y-68072380D02*
X127831427Y-68072380D01*
X127831427Y-67072380D01*
X128640951Y-67548571D02*
X128974284Y-67548571D01*
X129117141Y-68072380D02*
X128640951Y-68072380D01*
X128640951Y-67072380D01*
X129117141Y-67072380D01*
X129545713Y-68072380D02*
X129545713Y-67072380D01*
X129783808Y-67072380D01*
X129926665Y-67120000D01*
X130021903Y-67215238D01*
X130069522Y-67310476D01*
X130117141Y-67500952D01*
X130117141Y-67643809D01*
X130069522Y-67834285D01*
X130021903Y-67929523D01*
X129926665Y-68024761D01*
X129783808Y-68072380D01*
X129545713Y-68072380D01*
X130498094Y-67167619D02*
X130545713Y-67120000D01*
X130640951Y-67072380D01*
X130879046Y-67072380D01*
X130974284Y-67120000D01*
X131021903Y-67167619D01*
X131069522Y-67262857D01*
X131069522Y-67358095D01*
X131021903Y-67500952D01*
X130450475Y-68072380D01*
X131069522Y-68072380D01*
X131545713Y-68072380D02*
X131736189Y-68072380D01*
X131831427Y-68024761D01*
X131879046Y-67977142D01*
X131974284Y-67834285D01*
X132021903Y-67643809D01*
X132021903Y-67262857D01*
X131974284Y-67167619D01*
X131926665Y-67120000D01*
X131831427Y-67072380D01*
X131640951Y-67072380D01*
X131545713Y-67120000D01*
X131498094Y-67167619D01*
X131450475Y-67262857D01*
X131450475Y-67500952D01*
X131498094Y-67596190D01*
X131545713Y-67643809D01*
X131640951Y-67691428D01*
X131831427Y-67691428D01*
X131926665Y-67643809D01*
X131974284Y-67596190D01*
X132021903Y-67500952D01*
X126038570Y-69972380D02*
X125467141Y-69972380D01*
X125752856Y-69972380D02*
X125752856Y-68972380D01*
X125657617Y-69115238D01*
X125562379Y-69210476D01*
X125467141Y-69258095D01*
%TO.C,LED28*%
X97101903Y-68072380D02*
X96625713Y-68072380D01*
X96625713Y-67072380D01*
X97435237Y-67548571D02*
X97768570Y-67548571D01*
X97911427Y-68072380D02*
X97435237Y-68072380D01*
X97435237Y-67072380D01*
X97911427Y-67072380D01*
X98339999Y-68072380D02*
X98339999Y-67072380D01*
X98578094Y-67072380D01*
X98720951Y-67120000D01*
X98816189Y-67215238D01*
X98863808Y-67310476D01*
X98911427Y-67500952D01*
X98911427Y-67643809D01*
X98863808Y-67834285D01*
X98816189Y-67929523D01*
X98720951Y-68024761D01*
X98578094Y-68072380D01*
X98339999Y-68072380D01*
X99292380Y-67167619D02*
X99339999Y-67120000D01*
X99435237Y-67072380D01*
X99673332Y-67072380D01*
X99768570Y-67120000D01*
X99816189Y-67167619D01*
X99863808Y-67262857D01*
X99863808Y-67358095D01*
X99816189Y-67500952D01*
X99244761Y-68072380D01*
X99863808Y-68072380D01*
X100435237Y-67500952D02*
X100339999Y-67453333D01*
X100292380Y-67405714D01*
X100244761Y-67310476D01*
X100244761Y-67262857D01*
X100292380Y-67167619D01*
X100339999Y-67120000D01*
X100435237Y-67072380D01*
X100625713Y-67072380D01*
X100720951Y-67120000D01*
X100768570Y-67167619D01*
X100816189Y-67262857D01*
X100816189Y-67310476D01*
X100768570Y-67405714D01*
X100720951Y-67453333D01*
X100625713Y-67500952D01*
X100435237Y-67500952D01*
X100339999Y-67548571D01*
X100292380Y-67596190D01*
X100244761Y-67691428D01*
X100244761Y-67881904D01*
X100292380Y-67977142D01*
X100339999Y-68024761D01*
X100435237Y-68072380D01*
X100625713Y-68072380D01*
X100720951Y-68024761D01*
X100768570Y-67977142D01*
X100816189Y-67881904D01*
X100816189Y-67691428D01*
X100768570Y-67596190D01*
X100720951Y-67548571D01*
X100625713Y-67500952D01*
X94832856Y-69972380D02*
X94261427Y-69972380D01*
X94547142Y-69972380D02*
X94547142Y-68972380D01*
X94451903Y-69115238D01*
X94356665Y-69210476D01*
X94261427Y-69258095D01*
%TO.C,LED27*%
X65896189Y-68072380D02*
X65419999Y-68072380D01*
X65419999Y-67072380D01*
X66229523Y-67548571D02*
X66562856Y-67548571D01*
X66705713Y-68072380D02*
X66229523Y-68072380D01*
X66229523Y-67072380D01*
X66705713Y-67072380D01*
X67134285Y-68072380D02*
X67134285Y-67072380D01*
X67372380Y-67072380D01*
X67515237Y-67120000D01*
X67610475Y-67215238D01*
X67658094Y-67310476D01*
X67705713Y-67500952D01*
X67705713Y-67643809D01*
X67658094Y-67834285D01*
X67610475Y-67929523D01*
X67515237Y-68024761D01*
X67372380Y-68072380D01*
X67134285Y-68072380D01*
X68086666Y-67167619D02*
X68134285Y-67120000D01*
X68229523Y-67072380D01*
X68467618Y-67072380D01*
X68562856Y-67120000D01*
X68610475Y-67167619D01*
X68658094Y-67262857D01*
X68658094Y-67358095D01*
X68610475Y-67500952D01*
X68039047Y-68072380D01*
X68658094Y-68072380D01*
X68991428Y-67072380D02*
X69658094Y-67072380D01*
X69229523Y-68072380D01*
X63627142Y-69972380D02*
X63055713Y-69972380D01*
X63341428Y-69972380D02*
X63341428Y-68972380D01*
X63246189Y-69115238D01*
X63150951Y-69210476D01*
X63055713Y-69258095D01*
%TO.C,LED26*%
X34690475Y-68072380D02*
X34214285Y-68072380D01*
X34214285Y-67072380D01*
X35023809Y-67548571D02*
X35357142Y-67548571D01*
X35499999Y-68072380D02*
X35023809Y-68072380D01*
X35023809Y-67072380D01*
X35499999Y-67072380D01*
X35928571Y-68072380D02*
X35928571Y-67072380D01*
X36166666Y-67072380D01*
X36309523Y-67120000D01*
X36404761Y-67215238D01*
X36452380Y-67310476D01*
X36499999Y-67500952D01*
X36499999Y-67643809D01*
X36452380Y-67834285D01*
X36404761Y-67929523D01*
X36309523Y-68024761D01*
X36166666Y-68072380D01*
X35928571Y-68072380D01*
X36880952Y-67167619D02*
X36928571Y-67120000D01*
X37023809Y-67072380D01*
X37261904Y-67072380D01*
X37357142Y-67120000D01*
X37404761Y-67167619D01*
X37452380Y-67262857D01*
X37452380Y-67358095D01*
X37404761Y-67500952D01*
X36833333Y-68072380D01*
X37452380Y-68072380D01*
X38309523Y-67072380D02*
X38119047Y-67072380D01*
X38023809Y-67120000D01*
X37976190Y-67167619D01*
X37880952Y-67310476D01*
X37833333Y-67500952D01*
X37833333Y-67881904D01*
X37880952Y-67977142D01*
X37928571Y-68024761D01*
X38023809Y-68072380D01*
X38214285Y-68072380D01*
X38309523Y-68024761D01*
X38357142Y-67977142D01*
X38404761Y-67881904D01*
X38404761Y-67643809D01*
X38357142Y-67548571D01*
X38309523Y-67500952D01*
X38214285Y-67453333D01*
X38023809Y-67453333D01*
X37928571Y-67500952D01*
X37880952Y-67548571D01*
X37833333Y-67643809D01*
X32421428Y-69972380D02*
X31849999Y-69972380D01*
X32135714Y-69972380D02*
X32135714Y-68972380D01*
X32040475Y-69115238D01*
X31945237Y-69210476D01*
X31849999Y-69258095D01*
%TO.C,LED25*%
X3484761Y-68072380D02*
X3008571Y-68072380D01*
X3008571Y-67072380D01*
X3818095Y-67548571D02*
X4151428Y-67548571D01*
X4294285Y-68072380D02*
X3818095Y-68072380D01*
X3818095Y-67072380D01*
X4294285Y-67072380D01*
X4722857Y-68072380D02*
X4722857Y-67072380D01*
X4960952Y-67072380D01*
X5103809Y-67120000D01*
X5199047Y-67215238D01*
X5246666Y-67310476D01*
X5294285Y-67500952D01*
X5294285Y-67643809D01*
X5246666Y-67834285D01*
X5199047Y-67929523D01*
X5103809Y-68024761D01*
X4960952Y-68072380D01*
X4722857Y-68072380D01*
X5675238Y-67167619D02*
X5722857Y-67120000D01*
X5818095Y-67072380D01*
X6056190Y-67072380D01*
X6151428Y-67120000D01*
X6199047Y-67167619D01*
X6246666Y-67262857D01*
X6246666Y-67358095D01*
X6199047Y-67500952D01*
X5627619Y-68072380D01*
X6246666Y-68072380D01*
X7151428Y-67072380D02*
X6675238Y-67072380D01*
X6627619Y-67548571D01*
X6675238Y-67500952D01*
X6770476Y-67453333D01*
X7008571Y-67453333D01*
X7103809Y-67500952D01*
X7151428Y-67548571D01*
X7199047Y-67643809D01*
X7199047Y-67881904D01*
X7151428Y-67977142D01*
X7103809Y-68024761D01*
X7008571Y-68072380D01*
X6770476Y-68072380D01*
X6675238Y-68024761D01*
X6627619Y-67977142D01*
X1215714Y-69972380D02*
X644285Y-69972380D01*
X930000Y-69972380D02*
X930000Y-68972380D01*
X834761Y-69115238D01*
X739523Y-69210476D01*
X644285Y-69258095D01*
%TO.C,LED24*%
X221924761Y-46059046D02*
X221448571Y-46059046D01*
X221448571Y-45059046D01*
X222258095Y-45535237D02*
X222591428Y-45535237D01*
X222734285Y-46059046D02*
X222258095Y-46059046D01*
X222258095Y-45059046D01*
X222734285Y-45059046D01*
X223162857Y-46059046D02*
X223162857Y-45059046D01*
X223400952Y-45059046D01*
X223543809Y-45106666D01*
X223639047Y-45201904D01*
X223686666Y-45297142D01*
X223734285Y-45487618D01*
X223734285Y-45630475D01*
X223686666Y-45820951D01*
X223639047Y-45916189D01*
X223543809Y-46011427D01*
X223400952Y-46059046D01*
X223162857Y-46059046D01*
X224115238Y-45154285D02*
X224162857Y-45106666D01*
X224258095Y-45059046D01*
X224496190Y-45059046D01*
X224591428Y-45106666D01*
X224639047Y-45154285D01*
X224686666Y-45249523D01*
X224686666Y-45344761D01*
X224639047Y-45487618D01*
X224067619Y-46059046D01*
X224686666Y-46059046D01*
X225543809Y-45392380D02*
X225543809Y-46059046D01*
X225305714Y-45011427D02*
X225067619Y-45725713D01*
X225686666Y-45725713D01*
X219655714Y-47959046D02*
X219084285Y-47959046D01*
X219370000Y-47959046D02*
X219370000Y-46959046D01*
X219274761Y-47101904D01*
X219179523Y-47197142D01*
X219084285Y-47244761D01*
%TO.C,LED23*%
X190719045Y-46059046D02*
X190242855Y-46059046D01*
X190242855Y-45059046D01*
X191052379Y-45535237D02*
X191385712Y-45535237D01*
X191528569Y-46059046D02*
X191052379Y-46059046D01*
X191052379Y-45059046D01*
X191528569Y-45059046D01*
X191957141Y-46059046D02*
X191957141Y-45059046D01*
X192195236Y-45059046D01*
X192338093Y-45106666D01*
X192433331Y-45201904D01*
X192480950Y-45297142D01*
X192528569Y-45487618D01*
X192528569Y-45630475D01*
X192480950Y-45820951D01*
X192433331Y-45916189D01*
X192338093Y-46011427D01*
X192195236Y-46059046D01*
X191957141Y-46059046D01*
X192909522Y-45154285D02*
X192957141Y-45106666D01*
X193052379Y-45059046D01*
X193290474Y-45059046D01*
X193385712Y-45106666D01*
X193433331Y-45154285D01*
X193480950Y-45249523D01*
X193480950Y-45344761D01*
X193433331Y-45487618D01*
X192861903Y-46059046D01*
X193480950Y-46059046D01*
X193814284Y-45059046D02*
X194433331Y-45059046D01*
X194099998Y-45439999D01*
X194242855Y-45439999D01*
X194338093Y-45487618D01*
X194385712Y-45535237D01*
X194433331Y-45630475D01*
X194433331Y-45868570D01*
X194385712Y-45963808D01*
X194338093Y-46011427D01*
X194242855Y-46059046D01*
X193957141Y-46059046D01*
X193861903Y-46011427D01*
X193814284Y-45963808D01*
X188449998Y-47959046D02*
X187878569Y-47959046D01*
X188164284Y-47959046D02*
X188164284Y-46959046D01*
X188069045Y-47101904D01*
X187973807Y-47197142D01*
X187878569Y-47244761D01*
%TO.C,LED22*%
X159513331Y-46059046D02*
X159037141Y-46059046D01*
X159037141Y-45059046D01*
X159846665Y-45535237D02*
X160179998Y-45535237D01*
X160322855Y-46059046D02*
X159846665Y-46059046D01*
X159846665Y-45059046D01*
X160322855Y-45059046D01*
X160751427Y-46059046D02*
X160751427Y-45059046D01*
X160989522Y-45059046D01*
X161132379Y-45106666D01*
X161227617Y-45201904D01*
X161275236Y-45297142D01*
X161322855Y-45487618D01*
X161322855Y-45630475D01*
X161275236Y-45820951D01*
X161227617Y-45916189D01*
X161132379Y-46011427D01*
X160989522Y-46059046D01*
X160751427Y-46059046D01*
X161703808Y-45154285D02*
X161751427Y-45106666D01*
X161846665Y-45059046D01*
X162084760Y-45059046D01*
X162179998Y-45106666D01*
X162227617Y-45154285D01*
X162275236Y-45249523D01*
X162275236Y-45344761D01*
X162227617Y-45487618D01*
X161656189Y-46059046D01*
X162275236Y-46059046D01*
X162656189Y-45154285D02*
X162703808Y-45106666D01*
X162799046Y-45059046D01*
X163037141Y-45059046D01*
X163132379Y-45106666D01*
X163179998Y-45154285D01*
X163227617Y-45249523D01*
X163227617Y-45344761D01*
X163179998Y-45487618D01*
X162608570Y-46059046D01*
X163227617Y-46059046D01*
X157244284Y-47959046D02*
X156672855Y-47959046D01*
X156958570Y-47959046D02*
X156958570Y-46959046D01*
X156863331Y-47101904D01*
X156768093Y-47197142D01*
X156672855Y-47244761D01*
%TO.C,LED20*%
X97101903Y-46059046D02*
X96625713Y-46059046D01*
X96625713Y-45059046D01*
X97435237Y-45535237D02*
X97768570Y-45535237D01*
X97911427Y-46059046D02*
X97435237Y-46059046D01*
X97435237Y-45059046D01*
X97911427Y-45059046D01*
X98339999Y-46059046D02*
X98339999Y-45059046D01*
X98578094Y-45059046D01*
X98720951Y-45106666D01*
X98816189Y-45201904D01*
X98863808Y-45297142D01*
X98911427Y-45487618D01*
X98911427Y-45630475D01*
X98863808Y-45820951D01*
X98816189Y-45916189D01*
X98720951Y-46011427D01*
X98578094Y-46059046D01*
X98339999Y-46059046D01*
X99292380Y-45154285D02*
X99339999Y-45106666D01*
X99435237Y-45059046D01*
X99673332Y-45059046D01*
X99768570Y-45106666D01*
X99816189Y-45154285D01*
X99863808Y-45249523D01*
X99863808Y-45344761D01*
X99816189Y-45487618D01*
X99244761Y-46059046D01*
X99863808Y-46059046D01*
X100482856Y-45059046D02*
X100578094Y-45059046D01*
X100673332Y-45106666D01*
X100720951Y-45154285D01*
X100768570Y-45249523D01*
X100816189Y-45439999D01*
X100816189Y-45678094D01*
X100768570Y-45868570D01*
X100720951Y-45963808D01*
X100673332Y-46011427D01*
X100578094Y-46059046D01*
X100482856Y-46059046D01*
X100387618Y-46011427D01*
X100339999Y-45963808D01*
X100292380Y-45868570D01*
X100244761Y-45678094D01*
X100244761Y-45439999D01*
X100292380Y-45249523D01*
X100339999Y-45154285D01*
X100387618Y-45106666D01*
X100482856Y-45059046D01*
X94832856Y-47959046D02*
X94261427Y-47959046D01*
X94547142Y-47959046D02*
X94547142Y-46959046D01*
X94451903Y-47101904D01*
X94356665Y-47197142D01*
X94261427Y-47244761D01*
%TO.C,LED19*%
X65896189Y-46059046D02*
X65419999Y-46059046D01*
X65419999Y-45059046D01*
X66229523Y-45535237D02*
X66562856Y-45535237D01*
X66705713Y-46059046D02*
X66229523Y-46059046D01*
X66229523Y-45059046D01*
X66705713Y-45059046D01*
X67134285Y-46059046D02*
X67134285Y-45059046D01*
X67372380Y-45059046D01*
X67515237Y-45106666D01*
X67610475Y-45201904D01*
X67658094Y-45297142D01*
X67705713Y-45487618D01*
X67705713Y-45630475D01*
X67658094Y-45820951D01*
X67610475Y-45916189D01*
X67515237Y-46011427D01*
X67372380Y-46059046D01*
X67134285Y-46059046D01*
X68658094Y-46059046D02*
X68086666Y-46059046D01*
X68372380Y-46059046D02*
X68372380Y-45059046D01*
X68277142Y-45201904D01*
X68181904Y-45297142D01*
X68086666Y-45344761D01*
X69134285Y-46059046D02*
X69324761Y-46059046D01*
X69419999Y-46011427D01*
X69467618Y-45963808D01*
X69562856Y-45820951D01*
X69610475Y-45630475D01*
X69610475Y-45249523D01*
X69562856Y-45154285D01*
X69515237Y-45106666D01*
X69419999Y-45059046D01*
X69229523Y-45059046D01*
X69134285Y-45106666D01*
X69086666Y-45154285D01*
X69039047Y-45249523D01*
X69039047Y-45487618D01*
X69086666Y-45582856D01*
X69134285Y-45630475D01*
X69229523Y-45678094D01*
X69419999Y-45678094D01*
X69515237Y-45630475D01*
X69562856Y-45582856D01*
X69610475Y-45487618D01*
X63627142Y-47959046D02*
X63055713Y-47959046D01*
X63341428Y-47959046D02*
X63341428Y-46959046D01*
X63246189Y-47101904D01*
X63150951Y-47197142D01*
X63055713Y-47244761D01*
%TO.C,LED18*%
X34690475Y-46059046D02*
X34214285Y-46059046D01*
X34214285Y-45059046D01*
X35023809Y-45535237D02*
X35357142Y-45535237D01*
X35499999Y-46059046D02*
X35023809Y-46059046D01*
X35023809Y-45059046D01*
X35499999Y-45059046D01*
X35928571Y-46059046D02*
X35928571Y-45059046D01*
X36166666Y-45059046D01*
X36309523Y-45106666D01*
X36404761Y-45201904D01*
X36452380Y-45297142D01*
X36499999Y-45487618D01*
X36499999Y-45630475D01*
X36452380Y-45820951D01*
X36404761Y-45916189D01*
X36309523Y-46011427D01*
X36166666Y-46059046D01*
X35928571Y-46059046D01*
X37452380Y-46059046D02*
X36880952Y-46059046D01*
X37166666Y-46059046D02*
X37166666Y-45059046D01*
X37071428Y-45201904D01*
X36976190Y-45297142D01*
X36880952Y-45344761D01*
X38023809Y-45487618D02*
X37928571Y-45439999D01*
X37880952Y-45392380D01*
X37833333Y-45297142D01*
X37833333Y-45249523D01*
X37880952Y-45154285D01*
X37928571Y-45106666D01*
X38023809Y-45059046D01*
X38214285Y-45059046D01*
X38309523Y-45106666D01*
X38357142Y-45154285D01*
X38404761Y-45249523D01*
X38404761Y-45297142D01*
X38357142Y-45392380D01*
X38309523Y-45439999D01*
X38214285Y-45487618D01*
X38023809Y-45487618D01*
X37928571Y-45535237D01*
X37880952Y-45582856D01*
X37833333Y-45678094D01*
X37833333Y-45868570D01*
X37880952Y-45963808D01*
X37928571Y-46011427D01*
X38023809Y-46059046D01*
X38214285Y-46059046D01*
X38309523Y-46011427D01*
X38357142Y-45963808D01*
X38404761Y-45868570D01*
X38404761Y-45678094D01*
X38357142Y-45582856D01*
X38309523Y-45535237D01*
X38214285Y-45487618D01*
X32421428Y-47959046D02*
X31849999Y-47959046D01*
X32135714Y-47959046D02*
X32135714Y-46959046D01*
X32040475Y-47101904D01*
X31945237Y-47197142D01*
X31849999Y-47244761D01*
%TO.C,LED17*%
X3484761Y-46059046D02*
X3008571Y-46059046D01*
X3008571Y-45059046D01*
X3818095Y-45535237D02*
X4151428Y-45535237D01*
X4294285Y-46059046D02*
X3818095Y-46059046D01*
X3818095Y-45059046D01*
X4294285Y-45059046D01*
X4722857Y-46059046D02*
X4722857Y-45059046D01*
X4960952Y-45059046D01*
X5103809Y-45106666D01*
X5199047Y-45201904D01*
X5246666Y-45297142D01*
X5294285Y-45487618D01*
X5294285Y-45630475D01*
X5246666Y-45820951D01*
X5199047Y-45916189D01*
X5103809Y-46011427D01*
X4960952Y-46059046D01*
X4722857Y-46059046D01*
X6246666Y-46059046D02*
X5675238Y-46059046D01*
X5960952Y-46059046D02*
X5960952Y-45059046D01*
X5865714Y-45201904D01*
X5770476Y-45297142D01*
X5675238Y-45344761D01*
X6580000Y-45059046D02*
X7246666Y-45059046D01*
X6818095Y-46059046D01*
X1215714Y-47959046D02*
X644285Y-47959046D01*
X930000Y-47959046D02*
X930000Y-46959046D01*
X834761Y-47101904D01*
X739523Y-47197142D01*
X644285Y-47244761D01*
%TO.C,LED16*%
X221924761Y-23622380D02*
X221448571Y-23622380D01*
X221448571Y-22622380D01*
X222258095Y-23098571D02*
X222591428Y-23098571D01*
X222734285Y-23622380D02*
X222258095Y-23622380D01*
X222258095Y-22622380D01*
X222734285Y-22622380D01*
X223162857Y-23622380D02*
X223162857Y-22622380D01*
X223400952Y-22622380D01*
X223543809Y-22670000D01*
X223639047Y-22765238D01*
X223686666Y-22860476D01*
X223734285Y-23050952D01*
X223734285Y-23193809D01*
X223686666Y-23384285D01*
X223639047Y-23479523D01*
X223543809Y-23574761D01*
X223400952Y-23622380D01*
X223162857Y-23622380D01*
X224686666Y-23622380D02*
X224115238Y-23622380D01*
X224400952Y-23622380D02*
X224400952Y-22622380D01*
X224305714Y-22765238D01*
X224210476Y-22860476D01*
X224115238Y-22908095D01*
X225543809Y-22622380D02*
X225353333Y-22622380D01*
X225258095Y-22670000D01*
X225210476Y-22717619D01*
X225115238Y-22860476D01*
X225067619Y-23050952D01*
X225067619Y-23431904D01*
X225115238Y-23527142D01*
X225162857Y-23574761D01*
X225258095Y-23622380D01*
X225448571Y-23622380D01*
X225543809Y-23574761D01*
X225591428Y-23527142D01*
X225639047Y-23431904D01*
X225639047Y-23193809D01*
X225591428Y-23098571D01*
X225543809Y-23050952D01*
X225448571Y-23003333D01*
X225258095Y-23003333D01*
X225162857Y-23050952D01*
X225115238Y-23098571D01*
X225067619Y-23193809D01*
X219655714Y-25522380D02*
X219084285Y-25522380D01*
X219370000Y-25522380D02*
X219370000Y-24522380D01*
X219274761Y-24665238D01*
X219179523Y-24760476D01*
X219084285Y-24808095D01*
%TO.C,LED15*%
X190653333Y-23622380D02*
X190177143Y-23622380D01*
X190177143Y-22622380D01*
X190986667Y-23098571D02*
X191320000Y-23098571D01*
X191462857Y-23622380D02*
X190986667Y-23622380D01*
X190986667Y-22622380D01*
X191462857Y-22622380D01*
X191891429Y-23622380D02*
X191891429Y-22622380D01*
X192129524Y-22622380D01*
X192272381Y-22670000D01*
X192367619Y-22765238D01*
X192415238Y-22860476D01*
X192462857Y-23050952D01*
X192462857Y-23193809D01*
X192415238Y-23384285D01*
X192367619Y-23479523D01*
X192272381Y-23574761D01*
X192129524Y-23622380D01*
X191891429Y-23622380D01*
X193415238Y-23622380D02*
X192843810Y-23622380D01*
X193129524Y-23622380D02*
X193129524Y-22622380D01*
X193034286Y-22765238D01*
X192939048Y-22860476D01*
X192843810Y-22908095D01*
X194320000Y-22622380D02*
X193843810Y-22622380D01*
X193796191Y-23098571D01*
X193843810Y-23050952D01*
X193939048Y-23003333D01*
X194177143Y-23003333D01*
X194272381Y-23050952D01*
X194320000Y-23098571D01*
X194367619Y-23193809D01*
X194367619Y-23431904D01*
X194320000Y-23527142D01*
X194272381Y-23574761D01*
X194177143Y-23622380D01*
X193939048Y-23622380D01*
X193843810Y-23574761D01*
X193796191Y-23527142D01*
X188384286Y-25522380D02*
X187812857Y-25522380D01*
X188098572Y-25522380D02*
X188098572Y-24522380D01*
X188003333Y-24665238D01*
X187908095Y-24760476D01*
X187812857Y-24808095D01*
%TO.C,LED14*%
X159381905Y-23622380D02*
X158905715Y-23622380D01*
X158905715Y-22622380D01*
X159715239Y-23098571D02*
X160048572Y-23098571D01*
X160191429Y-23622380D02*
X159715239Y-23622380D01*
X159715239Y-22622380D01*
X160191429Y-22622380D01*
X160620001Y-23622380D02*
X160620001Y-22622380D01*
X160858096Y-22622380D01*
X161000953Y-22670000D01*
X161096191Y-22765238D01*
X161143810Y-22860476D01*
X161191429Y-23050952D01*
X161191429Y-23193809D01*
X161143810Y-23384285D01*
X161096191Y-23479523D01*
X161000953Y-23574761D01*
X160858096Y-23622380D01*
X160620001Y-23622380D01*
X162143810Y-23622380D02*
X161572382Y-23622380D01*
X161858096Y-23622380D02*
X161858096Y-22622380D01*
X161762858Y-22765238D01*
X161667620Y-22860476D01*
X161572382Y-22908095D01*
X163000953Y-22955714D02*
X163000953Y-23622380D01*
X162762858Y-22574761D02*
X162524763Y-23289047D01*
X163143810Y-23289047D01*
X157112858Y-25522380D02*
X156541429Y-25522380D01*
X156827144Y-25522380D02*
X156827144Y-24522380D01*
X156731905Y-24665238D01*
X156636667Y-24760476D01*
X156541429Y-24808095D01*
%TO.C,LED13*%
X128110477Y-23622380D02*
X127634287Y-23622380D01*
X127634287Y-22622380D01*
X128443811Y-23098571D02*
X128777144Y-23098571D01*
X128920001Y-23622380D02*
X128443811Y-23622380D01*
X128443811Y-22622380D01*
X128920001Y-22622380D01*
X129348573Y-23622380D02*
X129348573Y-22622380D01*
X129586668Y-22622380D01*
X129729525Y-22670000D01*
X129824763Y-22765238D01*
X129872382Y-22860476D01*
X129920001Y-23050952D01*
X129920001Y-23193809D01*
X129872382Y-23384285D01*
X129824763Y-23479523D01*
X129729525Y-23574761D01*
X129586668Y-23622380D01*
X129348573Y-23622380D01*
X130872382Y-23622380D02*
X130300954Y-23622380D01*
X130586668Y-23622380D02*
X130586668Y-22622380D01*
X130491430Y-22765238D01*
X130396192Y-22860476D01*
X130300954Y-22908095D01*
X131205716Y-22622380D02*
X131824763Y-22622380D01*
X131491430Y-23003333D01*
X131634287Y-23003333D01*
X131729525Y-23050952D01*
X131777144Y-23098571D01*
X131824763Y-23193809D01*
X131824763Y-23431904D01*
X131777144Y-23527142D01*
X131729525Y-23574761D01*
X131634287Y-23622380D01*
X131348573Y-23622380D01*
X131253335Y-23574761D01*
X131205716Y-23527142D01*
X125841430Y-25522380D02*
X125270001Y-25522380D01*
X125555716Y-25522380D02*
X125555716Y-24522380D01*
X125460477Y-24665238D01*
X125365239Y-24760476D01*
X125270001Y-24808095D01*
%TO.C,LED12*%
X96839049Y-23622380D02*
X96362859Y-23622380D01*
X96362859Y-22622380D01*
X97172383Y-23098571D02*
X97505716Y-23098571D01*
X97648573Y-23622380D02*
X97172383Y-23622380D01*
X97172383Y-22622380D01*
X97648573Y-22622380D01*
X98077145Y-23622380D02*
X98077145Y-22622380D01*
X98315240Y-22622380D01*
X98458097Y-22670000D01*
X98553335Y-22765238D01*
X98600954Y-22860476D01*
X98648573Y-23050952D01*
X98648573Y-23193809D01*
X98600954Y-23384285D01*
X98553335Y-23479523D01*
X98458097Y-23574761D01*
X98315240Y-23622380D01*
X98077145Y-23622380D01*
X99600954Y-23622380D02*
X99029526Y-23622380D01*
X99315240Y-23622380D02*
X99315240Y-22622380D01*
X99220002Y-22765238D01*
X99124764Y-22860476D01*
X99029526Y-22908095D01*
X99981907Y-22717619D02*
X100029526Y-22670000D01*
X100124764Y-22622380D01*
X100362859Y-22622380D01*
X100458097Y-22670000D01*
X100505716Y-22717619D01*
X100553335Y-22812857D01*
X100553335Y-22908095D01*
X100505716Y-23050952D01*
X99934288Y-23622380D01*
X100553335Y-23622380D01*
X94570002Y-25522380D02*
X93998573Y-25522380D01*
X94284288Y-25522380D02*
X94284288Y-24522380D01*
X94189049Y-24665238D01*
X94093811Y-24760476D01*
X93998573Y-24808095D01*
%TO.C,LED11*%
X65567621Y-23622380D02*
X65091431Y-23622380D01*
X65091431Y-22622380D01*
X65900955Y-23098571D02*
X66234288Y-23098571D01*
X66377145Y-23622380D02*
X65900955Y-23622380D01*
X65900955Y-22622380D01*
X66377145Y-22622380D01*
X66805717Y-23622380D02*
X66805717Y-22622380D01*
X67043812Y-22622380D01*
X67186669Y-22670000D01*
X67281907Y-22765238D01*
X67329526Y-22860476D01*
X67377145Y-23050952D01*
X67377145Y-23193809D01*
X67329526Y-23384285D01*
X67281907Y-23479523D01*
X67186669Y-23574761D01*
X67043812Y-23622380D01*
X66805717Y-23622380D01*
X68329526Y-23622380D02*
X67758098Y-23622380D01*
X68043812Y-23622380D02*
X68043812Y-22622380D01*
X67948574Y-22765238D01*
X67853336Y-22860476D01*
X67758098Y-22908095D01*
X69281907Y-23622380D02*
X68710479Y-23622380D01*
X68996193Y-23622380D02*
X68996193Y-22622380D01*
X68900955Y-22765238D01*
X68805717Y-22860476D01*
X68710479Y-22908095D01*
X63298574Y-25522380D02*
X62727145Y-25522380D01*
X63012860Y-25522380D02*
X63012860Y-24522380D01*
X62917621Y-24665238D01*
X62822383Y-24760476D01*
X62727145Y-24808095D01*
%TO.C,LED10*%
X34296193Y-23622380D02*
X33820003Y-23622380D01*
X33820003Y-22622380D01*
X34629527Y-23098571D02*
X34962860Y-23098571D01*
X35105717Y-23622380D02*
X34629527Y-23622380D01*
X34629527Y-22622380D01*
X35105717Y-22622380D01*
X35534289Y-23622380D02*
X35534289Y-22622380D01*
X35772384Y-22622380D01*
X35915241Y-22670000D01*
X36010479Y-22765238D01*
X36058098Y-22860476D01*
X36105717Y-23050952D01*
X36105717Y-23193809D01*
X36058098Y-23384285D01*
X36010479Y-23479523D01*
X35915241Y-23574761D01*
X35772384Y-23622380D01*
X35534289Y-23622380D01*
X37058098Y-23622380D02*
X36486670Y-23622380D01*
X36772384Y-23622380D02*
X36772384Y-22622380D01*
X36677146Y-22765238D01*
X36581908Y-22860476D01*
X36486670Y-22908095D01*
X37677146Y-22622380D02*
X37772384Y-22622380D01*
X37867622Y-22670000D01*
X37915241Y-22717619D01*
X37962860Y-22812857D01*
X38010479Y-23003333D01*
X38010479Y-23241428D01*
X37962860Y-23431904D01*
X37915241Y-23527142D01*
X37867622Y-23574761D01*
X37772384Y-23622380D01*
X37677146Y-23622380D01*
X37581908Y-23574761D01*
X37534289Y-23527142D01*
X37486670Y-23431904D01*
X37439051Y-23241428D01*
X37439051Y-23003333D01*
X37486670Y-22812857D01*
X37534289Y-22717619D01*
X37581908Y-22670000D01*
X37677146Y-22622380D01*
X32027146Y-25522380D02*
X31455717Y-25522380D01*
X31741432Y-25522380D02*
X31741432Y-24522380D01*
X31646193Y-24665238D01*
X31550955Y-24760476D01*
X31455717Y-24808095D01*
%TO.C,LED9*%
X3960952Y-23622380D02*
X3484761Y-23622380D01*
X3484761Y-22622380D01*
X4294285Y-23098571D02*
X4627619Y-23098571D01*
X4770476Y-23622380D02*
X4294285Y-23622380D01*
X4294285Y-22622380D01*
X4770476Y-22622380D01*
X5199047Y-23622380D02*
X5199047Y-22622380D01*
X5437142Y-22622380D01*
X5580000Y-22670000D01*
X5675238Y-22765238D01*
X5722857Y-22860476D01*
X5770476Y-23050952D01*
X5770476Y-23193809D01*
X5722857Y-23384285D01*
X5675238Y-23479523D01*
X5580000Y-23574761D01*
X5437142Y-23622380D01*
X5199047Y-23622380D01*
X6246666Y-23622380D02*
X6437142Y-23622380D01*
X6532380Y-23574761D01*
X6580000Y-23527142D01*
X6675238Y-23384285D01*
X6722857Y-23193809D01*
X6722857Y-22812857D01*
X6675238Y-22717619D01*
X6627619Y-22670000D01*
X6532380Y-22622380D01*
X6341904Y-22622380D01*
X6246666Y-22670000D01*
X6199047Y-22717619D01*
X6151428Y-22812857D01*
X6151428Y-23050952D01*
X6199047Y-23146190D01*
X6246666Y-23193809D01*
X6341904Y-23241428D01*
X6532380Y-23241428D01*
X6627619Y-23193809D01*
X6675238Y-23146190D01*
X6722857Y-23050952D01*
X1215714Y-25522380D02*
X644285Y-25522380D01*
X930000Y-25522380D02*
X930000Y-24522380D01*
X834761Y-24665238D01*
X739523Y-24760476D01*
X644285Y-24808095D01*
%TO.C,LED8*%
X222400952Y-2032380D02*
X221924761Y-2032380D01*
X221924761Y-1032380D01*
X222734285Y-1508571D02*
X223067619Y-1508571D01*
X223210476Y-2032380D02*
X222734285Y-2032380D01*
X222734285Y-1032380D01*
X223210476Y-1032380D01*
X223639047Y-2032380D02*
X223639047Y-1032380D01*
X223877142Y-1032380D01*
X224020000Y-1080000D01*
X224115238Y-1175238D01*
X224162857Y-1270476D01*
X224210476Y-1460952D01*
X224210476Y-1603809D01*
X224162857Y-1794285D01*
X224115238Y-1889523D01*
X224020000Y-1984761D01*
X223877142Y-2032380D01*
X223639047Y-2032380D01*
X224781904Y-1460952D02*
X224686666Y-1413333D01*
X224639047Y-1365714D01*
X224591428Y-1270476D01*
X224591428Y-1222857D01*
X224639047Y-1127619D01*
X224686666Y-1080000D01*
X224781904Y-1032380D01*
X224972380Y-1032380D01*
X225067619Y-1080000D01*
X225115238Y-1127619D01*
X225162857Y-1222857D01*
X225162857Y-1270476D01*
X225115238Y-1365714D01*
X225067619Y-1413333D01*
X224972380Y-1460952D01*
X224781904Y-1460952D01*
X224686666Y-1508571D01*
X224639047Y-1556190D01*
X224591428Y-1651428D01*
X224591428Y-1841904D01*
X224639047Y-1937142D01*
X224686666Y-1984761D01*
X224781904Y-2032380D01*
X224972380Y-2032380D01*
X225067619Y-1984761D01*
X225115238Y-1937142D01*
X225162857Y-1841904D01*
X225162857Y-1651428D01*
X225115238Y-1556190D01*
X225067619Y-1508571D01*
X224972380Y-1460952D01*
X219655714Y-3932380D02*
X219084285Y-3932380D01*
X219370000Y-3932380D02*
X219370000Y-2932380D01*
X219274761Y-3075238D01*
X219179523Y-3170476D01*
X219084285Y-3218095D01*
%TO.C,LED7*%
X191195236Y-2032380D02*
X190719045Y-2032380D01*
X190719045Y-1032380D01*
X191528569Y-1508571D02*
X191861903Y-1508571D01*
X192004760Y-2032380D02*
X191528569Y-2032380D01*
X191528569Y-1032380D01*
X192004760Y-1032380D01*
X192433331Y-2032380D02*
X192433331Y-1032380D01*
X192671426Y-1032380D01*
X192814284Y-1080000D01*
X192909522Y-1175238D01*
X192957141Y-1270476D01*
X193004760Y-1460952D01*
X193004760Y-1603809D01*
X192957141Y-1794285D01*
X192909522Y-1889523D01*
X192814284Y-1984761D01*
X192671426Y-2032380D01*
X192433331Y-2032380D01*
X193338093Y-1032380D02*
X194004760Y-1032380D01*
X193576188Y-2032380D01*
X188449998Y-3932380D02*
X187878569Y-3932380D01*
X188164284Y-3932380D02*
X188164284Y-2932380D01*
X188069045Y-3075238D01*
X187973807Y-3170476D01*
X187878569Y-3218095D01*
%TO.C,LED6*%
X159989522Y-2032380D02*
X159513331Y-2032380D01*
X159513331Y-1032380D01*
X160322855Y-1508571D02*
X160656189Y-1508571D01*
X160799046Y-2032380D02*
X160322855Y-2032380D01*
X160322855Y-1032380D01*
X160799046Y-1032380D01*
X161227617Y-2032380D02*
X161227617Y-1032380D01*
X161465712Y-1032380D01*
X161608570Y-1080000D01*
X161703808Y-1175238D01*
X161751427Y-1270476D01*
X161799046Y-1460952D01*
X161799046Y-1603809D01*
X161751427Y-1794285D01*
X161703808Y-1889523D01*
X161608570Y-1984761D01*
X161465712Y-2032380D01*
X161227617Y-2032380D01*
X162656189Y-1032380D02*
X162465712Y-1032380D01*
X162370474Y-1080000D01*
X162322855Y-1127619D01*
X162227617Y-1270476D01*
X162179998Y-1460952D01*
X162179998Y-1841904D01*
X162227617Y-1937142D01*
X162275236Y-1984761D01*
X162370474Y-2032380D01*
X162560950Y-2032380D01*
X162656189Y-1984761D01*
X162703808Y-1937142D01*
X162751427Y-1841904D01*
X162751427Y-1603809D01*
X162703808Y-1508571D01*
X162656189Y-1460952D01*
X162560950Y-1413333D01*
X162370474Y-1413333D01*
X162275236Y-1460952D01*
X162227617Y-1508571D01*
X162179998Y-1603809D01*
X157244284Y-3932380D02*
X156672855Y-3932380D01*
X156958570Y-3932380D02*
X156958570Y-2932380D01*
X156863331Y-3075238D01*
X156768093Y-3170476D01*
X156672855Y-3218095D01*
%TO.C,LED5*%
X128783808Y-2032380D02*
X128307617Y-2032380D01*
X128307617Y-1032380D01*
X129117141Y-1508571D02*
X129450475Y-1508571D01*
X129593332Y-2032380D02*
X129117141Y-2032380D01*
X129117141Y-1032380D01*
X129593332Y-1032380D01*
X130021903Y-2032380D02*
X130021903Y-1032380D01*
X130259998Y-1032380D01*
X130402856Y-1080000D01*
X130498094Y-1175238D01*
X130545713Y-1270476D01*
X130593332Y-1460952D01*
X130593332Y-1603809D01*
X130545713Y-1794285D01*
X130498094Y-1889523D01*
X130402856Y-1984761D01*
X130259998Y-2032380D01*
X130021903Y-2032380D01*
X131498094Y-1032380D02*
X131021903Y-1032380D01*
X130974284Y-1508571D01*
X131021903Y-1460952D01*
X131117141Y-1413333D01*
X131355236Y-1413333D01*
X131450475Y-1460952D01*
X131498094Y-1508571D01*
X131545713Y-1603809D01*
X131545713Y-1841904D01*
X131498094Y-1937142D01*
X131450475Y-1984761D01*
X131355236Y-2032380D01*
X131117141Y-2032380D01*
X131021903Y-1984761D01*
X130974284Y-1937142D01*
X126038570Y-3932380D02*
X125467141Y-3932380D01*
X125752856Y-3932380D02*
X125752856Y-2932380D01*
X125657617Y-3075238D01*
X125562379Y-3170476D01*
X125467141Y-3218095D01*
%TO.C,LED4*%
X97578094Y-2032380D02*
X97101903Y-2032380D01*
X97101903Y-1032380D01*
X97911427Y-1508571D02*
X98244761Y-1508571D01*
X98387618Y-2032380D02*
X97911427Y-2032380D01*
X97911427Y-1032380D01*
X98387618Y-1032380D01*
X98816189Y-2032380D02*
X98816189Y-1032380D01*
X99054284Y-1032380D01*
X99197142Y-1080000D01*
X99292380Y-1175238D01*
X99339999Y-1270476D01*
X99387618Y-1460952D01*
X99387618Y-1603809D01*
X99339999Y-1794285D01*
X99292380Y-1889523D01*
X99197142Y-1984761D01*
X99054284Y-2032380D01*
X98816189Y-2032380D01*
X100244761Y-1365714D02*
X100244761Y-2032380D01*
X100006665Y-984761D02*
X99768570Y-1699047D01*
X100387618Y-1699047D01*
X94832856Y-3932380D02*
X94261427Y-3932380D01*
X94547142Y-3932380D02*
X94547142Y-2932380D01*
X94451903Y-3075238D01*
X94356665Y-3170476D01*
X94261427Y-3218095D01*
%TO.C,LED3*%
X66372380Y-2032380D02*
X65896189Y-2032380D01*
X65896189Y-1032380D01*
X66705713Y-1508571D02*
X67039047Y-1508571D01*
X67181904Y-2032380D02*
X66705713Y-2032380D01*
X66705713Y-1032380D01*
X67181904Y-1032380D01*
X67610475Y-2032380D02*
X67610475Y-1032380D01*
X67848570Y-1032380D01*
X67991428Y-1080000D01*
X68086666Y-1175238D01*
X68134285Y-1270476D01*
X68181904Y-1460952D01*
X68181904Y-1603809D01*
X68134285Y-1794285D01*
X68086666Y-1889523D01*
X67991428Y-1984761D01*
X67848570Y-2032380D01*
X67610475Y-2032380D01*
X68515237Y-1032380D02*
X69134285Y-1032380D01*
X68800951Y-1413333D01*
X68943808Y-1413333D01*
X69039047Y-1460952D01*
X69086666Y-1508571D01*
X69134285Y-1603809D01*
X69134285Y-1841904D01*
X69086666Y-1937142D01*
X69039047Y-1984761D01*
X68943808Y-2032380D01*
X68658094Y-2032380D01*
X68562856Y-1984761D01*
X68515237Y-1937142D01*
X63627142Y-3932380D02*
X63055713Y-3932380D01*
X63341428Y-3932380D02*
X63341428Y-2932380D01*
X63246189Y-3075238D01*
X63150951Y-3170476D01*
X63055713Y-3218095D01*
%TO.C,LED2*%
X35166666Y-2032380D02*
X34690475Y-2032380D01*
X34690475Y-1032380D01*
X35499999Y-1508571D02*
X35833333Y-1508571D01*
X35976190Y-2032380D02*
X35499999Y-2032380D01*
X35499999Y-1032380D01*
X35976190Y-1032380D01*
X36404761Y-2032380D02*
X36404761Y-1032380D01*
X36642856Y-1032380D01*
X36785714Y-1080000D01*
X36880952Y-1175238D01*
X36928571Y-1270476D01*
X36976190Y-1460952D01*
X36976190Y-1603809D01*
X36928571Y-1794285D01*
X36880952Y-1889523D01*
X36785714Y-1984761D01*
X36642856Y-2032380D01*
X36404761Y-2032380D01*
X37357142Y-1127619D02*
X37404761Y-1080000D01*
X37499999Y-1032380D01*
X37738094Y-1032380D01*
X37833333Y-1080000D01*
X37880952Y-1127619D01*
X37928571Y-1222857D01*
X37928571Y-1318095D01*
X37880952Y-1460952D01*
X37309523Y-2032380D01*
X37928571Y-2032380D01*
X32421428Y-3932380D02*
X31849999Y-3932380D01*
X32135714Y-3932380D02*
X32135714Y-2932380D01*
X32040475Y-3075238D01*
X31945237Y-3170476D01*
X31849999Y-3218095D01*
%TO.C,LED1*%
X3960952Y-2032380D02*
X3484761Y-2032380D01*
X3484761Y-1032380D01*
X4294285Y-1508571D02*
X4627619Y-1508571D01*
X4770476Y-2032380D02*
X4294285Y-2032380D01*
X4294285Y-1032380D01*
X4770476Y-1032380D01*
X5199047Y-2032380D02*
X5199047Y-1032380D01*
X5437142Y-1032380D01*
X5580000Y-1080000D01*
X5675238Y-1175238D01*
X5722857Y-1270476D01*
X5770476Y-1460952D01*
X5770476Y-1603809D01*
X5722857Y-1794285D01*
X5675238Y-1889523D01*
X5580000Y-1984761D01*
X5437142Y-2032380D01*
X5199047Y-2032380D01*
X6722857Y-2032380D02*
X6151428Y-2032380D01*
X6437142Y-2032380D02*
X6437142Y-1032380D01*
X6341904Y-1175238D01*
X6246666Y-1270476D01*
X6151428Y-1318095D01*
X1215714Y-3932380D02*
X644285Y-3932380D01*
X930000Y-3932380D02*
X930000Y-2932380D01*
X834761Y-3075238D01*
X739523Y-3170476D01*
X644285Y-3218095D01*
%TO.C,J2*%
X207184666Y-54152380D02*
X207184666Y-54866666D01*
X207137047Y-55009523D01*
X207041809Y-55104761D01*
X206898952Y-55152380D01*
X206803714Y-55152380D01*
X207613238Y-54247619D02*
X207660857Y-54200000D01*
X207756095Y-54152380D01*
X207994190Y-54152380D01*
X208089428Y-54200000D01*
X208137047Y-54247619D01*
X208184666Y-54342857D01*
X208184666Y-54438095D01*
X208137047Y-54580952D01*
X207565619Y-55152380D01*
X208184666Y-55152380D01*
%TO.C,J1*%
X21002666Y-54152380D02*
X21002666Y-54866666D01*
X20955047Y-55009523D01*
X20859809Y-55104761D01*
X20716952Y-55152380D01*
X20621714Y-55152380D01*
X22002666Y-55152380D02*
X21431238Y-55152380D01*
X21716952Y-55152380D02*
X21716952Y-54152380D01*
X21621714Y-54295238D01*
X21526476Y-54390476D01*
X21431238Y-54438095D01*
%TD*%
M02*
